<svg width="103" height="103" viewBox="0 0 103 103" fill="none" xmlns="http://www.w3.org/2000/svg">
<g clip-path="url(#clip0_1437_40623)">
<path d="M74.9004 30.4517L101.34 4.00952V101.338H4.01172L13.5734 91.7762" stroke="#00B0AD" stroke-width="3" stroke-miterlimit="10"/>
<path d="M88.9406 40.5066C84.3878 38.989 77.6571 37.4714 70.7344 37.4714C54.0458 37.4714 39.7968 43.5393 28.2516 43.5393C24.7902 43.5393 22.0167 43.2204 19.1484 42.0217V87.5398C22.0167 88.7384 24.7927 89.0574 28.2516 89.0574C39.7968 89.0574 54.0458 82.9895 70.7344 82.9895C77.6571 82.9895 84.3903 84.5071 88.9406 86.0247V40.5066Z" stroke="#584CA0" stroke-width="3" stroke-miterlimit="10"/>
<path d="M46.457 67.8183C46.457 70.3327 48.4955 72.3711 51.0098 72.3711H57.0777C59.5921 72.3711 61.6306 70.3327 61.6306 67.8183C61.6306 65.3039 59.5921 63.2655 57.0777 63.2655H51.0098C48.4955 63.2655 46.457 61.2271 46.457 58.7127C46.457 56.1983 48.4955 54.1599 51.0098 54.1599H57.0777C59.5921 54.1599 61.6306 56.1983 61.6306 58.7127" stroke="#584CA0" stroke-width="3" stroke-miterlimit="10"/>
<path d="M54.043 72.3687V76.9215" stroke="#584CA0" stroke-width="3" stroke-miterlimit="10"/>
<path d="M54.043 49.6096V54.1624" stroke="#584CA0" stroke-width="3" stroke-miterlimit="10"/>
</g>
<defs>
<clipPath id="clip0_1437_40623">
<rect width="103" height="103" fill="white"/>
</clipPath>
</defs>
</svg>
