<svg width="79" height="79" viewBox="0 0 79 79" fill="none" xmlns="http://www.w3.org/2000/svg">
<g clip-path="url(#clip0_2460_89856)">
<path d="M63.8079 16.9938L77.7241 3.07568V77.7256H3.07422L9.4274 71.3724" stroke="#00B0AD" stroke-width="2.15455" stroke-miterlimit="10"/>
<path d="M28.7724 70.9955H14.2656V10.3268H51.194L64.3839 24.8356" stroke="#CDDC2C" stroke-width="2.15455" stroke-miterlimit="10"/>
<path d="M59.1051 27.4732H48.5547V15.6039" stroke="#CDDC2C" stroke-width="2.15455" stroke-miterlimit="10"/>
<path d="M41.9612 34.0673H23.4961" stroke="#CDDC2C" stroke-width="2.15455" stroke-miterlimit="10"/>
<path d="M41.9612 41.9801H23.4961" stroke="#CDDC2C" stroke-width="2.15455" stroke-miterlimit="10"/>
<path d="M36.686 49.8943H23.4961" stroke="#CDDC2C" stroke-width="2.15455" stroke-miterlimit="10"/>
<path d="M36.6875 59.1264C36.6875 59.1264 39.9845 59.7858 41.9627 61.764C43.9409 63.7422 44.6003 67.0392 44.6003 67.0392" stroke="#CDDC2C" stroke-width="2.15455" stroke-miterlimit="10"/>
<path d="M70.9752 40.6612C72.3628 39.2736 71.5677 35.9804 69.6564 34.0672C67.7432 32.1559 64.45 31.3608 63.0624 32.7484C62.791 33.0198 36.6845 59.1263 36.6845 59.1263L34.0469 69.6767L44.5973 67.0391L70.9752 40.6612Z" stroke="#CDDC2C" stroke-width="2.15455" stroke-miterlimit="10"/>
<path d="M65.7053 44.6195L59.1094 38.0236" stroke="#CDDC2C" stroke-width="2.15455" stroke-miterlimit="10"/>
</g>
<defs>
<clipPath id="clip0_2460_89856">
<rect width="79" height="79" fill="white"/>
</clipPath>
</defs>
</svg>
