<svg width="107" height="107" viewBox="0 0 107 107" fill="none" xmlns="http://www.w3.org/2000/svg">
<g clip-path="url(#clip0_1442_40664)">
<path d="M86.1157 23.7111L104.788 5.03613V105.199H4.625L13.1495 96.6747" stroke="#00B0AD" stroke-width="3" stroke-miterlimit="10"/>
<path d="M39.1055 96.1692H19.6406V14.7656H69.19L86.8879 34.233" stroke="#584CA0" stroke-width="3" stroke-miterlimit="10"/>
<path d="M79.8086 37.7722H65.6523V21.8464" stroke="#584CA0" stroke-width="3" stroke-miterlimit="10"/>
<path d="M56.8033 46.6199H32.0273" stroke="#584CA0" stroke-width="3" stroke-miterlimit="10"/>
<path d="M56.8033 57.2373H32.0273" stroke="#584CA0" stroke-width="3" stroke-miterlimit="10"/>
<path d="M49.7252 67.8562H32.0273" stroke="#584CA0" stroke-width="3" stroke-miterlimit="10"/>
<path d="M49.7266 80.2434C49.7266 80.2434 54.1504 81.1282 56.8047 83.7825C59.459 86.4368 60.3437 90.8606 60.3437 90.8606" stroke="#584CA0" stroke-width="3" stroke-miterlimit="10"/>
<path d="M95.7369 55.4674C97.5988 53.6055 96.5319 49.1868 93.9674 46.6197C91.4003 44.0552 86.9816 42.9884 85.1197 44.8502C84.7556 45.2144 49.7266 80.2434 49.7266 80.2434L46.1875 94.3996L60.3437 90.8606L95.7369 55.4674Z" stroke="#584CA0" stroke-width="3" stroke-miterlimit="10"/>
<path d="M88.6588 60.7784L79.8086 51.9282" stroke="#584CA0" stroke-width="3" stroke-miterlimit="10"/>
</g>
<defs>
<clipPath id="clip0_1442_40664">
<rect width="106" height="106" fill="white" transform="translate(0.5 0.909424)"/>
</clipPath>
</defs>
</svg>
