<svg width="107" height="107" viewBox="0 0 107 107" fill="none" xmlns="http://www.w3.org/2000/svg">
<g clip-path="url(#clip0_1780_54026)">
<path d="M80.177 29.2604L105.272 4.16528V105.273H4.16406L20.8691 88.5683" stroke="#00B0AD" stroke-width="3" stroke-miterlimit="10"/>
<path d="M67.8646 51.0447H57.3414C54.8536 51.0447 53.0156 52.8827 53.0156 55.373V61.2546" stroke="#584CA0" stroke-width="3" stroke-miterlimit="10"/>
<path d="M53.0117 71.1539V78.7907C53.0117 81.2785 54.8497 83.1191 57.3375 83.1191H71.7256L87.592 94.657L86.1501 83.1191H89.9192C92.407 83.1191 94.2631 81.2811 94.2631 78.7907V55.373C94.2631 52.8853 92.4433 51.0447 89.9555 51.0447H77.7626" stroke="#584CA0" stroke-width="3" stroke-miterlimit="10"/>
<path d="M28.8153 66.2043L26.9565 81.074L47.3998 66.2043H67.2346C70.4395 66.2043 72.8107 63.8356 72.8107 60.6282V30.9277C72.8107 27.7203 70.442 25.3516 67.2346 25.3516H23.9122C20.7074 25.3516 18.3594 27.7203 18.3594 30.9277V60.6282C18.3594 63.833 20.7514 66.2043 23.9588 66.2043H28.8127H28.8153Z" stroke="#584CA0" stroke-width="3" stroke-miterlimit="10"/>
</g>
<defs>
<clipPath id="clip0_1780_54026">
<rect width="107" height="107" fill="white"/>
</clipPath>
</defs>
</svg>
