<svg width="124" height="124" viewBox="0 0 124 124" fill="none" xmlns="http://www.w3.org/2000/svg">
<path d="M99.7829 27.0422L121.998 4.82703V121.999H4.82617L21.4193 105.406" stroke="#00B0AD" stroke-width="3" stroke-miterlimit="10"/>
<path d="M31.6105 34.4133C25.6015 34.4133 20.7324 39.2853 20.7324 45.2914V90.3757C20.7324 96.3848 25.6015 101.254 31.6105 101.254C37.6196 101.254 42.4886 96.3848 42.4886 90.3757V45.2914C42.4886 39.2853 37.6196 34.4133 31.6105 34.4133Z" stroke="#CDDC2C" stroke-width="3" stroke-miterlimit="10"/>
<path d="M26.8262 69.5885C26.8262 69.5885 36.7803 70.6745 41.5113 68.5625" stroke="#CDDC2C" stroke-width="3" stroke-miterlimit="10"/>
<path d="M64.8898 34.4133C58.8808 34.4133 54.0117 39.2853 54.0117 45.2914V90.3757C54.0117 96.3848 58.8808 101.254 64.8898 101.254C70.8989 101.254 75.7679 96.3848 75.7679 90.3757V45.2914C75.7679 39.2853 70.8989 34.4133 64.8898 34.4133Z" stroke="#CDDC2C" stroke-width="3" stroke-miterlimit="10"/>
<path d="M60.1055 69.5886C60.1055 69.5886 70.0595 70.6746 74.7906 68.5626" stroke="#CDDC2C" stroke-width="3" stroke-miterlimit="10"/>
<path d="M98.1691 34.4133C92.1601 34.4133 87.291 39.2853 87.291 45.2914V90.3757C87.291 96.3848 92.1601 101.254 98.1691 101.254C104.178 101.254 109.047 96.3848 109.047 90.3757V45.2914C109.047 39.2853 104.178 34.4133 98.1691 34.4133Z" stroke="#CDDC2C" stroke-width="3" stroke-miterlimit="10"/>
<path d="M93.3848 69.5886C93.3848 69.5886 103.339 70.6746 108.07 68.5626" stroke="#CDDC2C" stroke-width="3" stroke-miterlimit="10"/>
</svg>
