<svg width="83" height="83" viewBox="0 0 83 83" fill="none" xmlns="http://www.w3.org/2000/svg">
<path d="M82 82H3.67521H3L82 3V82Z" stroke="#00B0AC" stroke-width="2"/>
<g clip-path="url(#clip0_10_76598)">
<path d="M26 60.5L26.5 57L28.5 55L63.5 20L64.5 22L26 60.5Z" fill="#EEEDF5"/>
<path d="M52.6488 75.1324C52.119 75.1324 51.5791 74.7611 51.5791 74.0505C51.5791 71.7384 51.63 69.7975 51.8745 67.8884C52.0681 66.3611 52.5571 65.3217 53.4128 64.6217C54.2685 63.9217 55.2771 63.4339 56.418 63.2005C57.4367 62.9778 58.4758 62.946 59.4742 62.9036C59.9122 62.8823 60.3503 62.8717 60.7985 62.8399C61.9497 62.7551 63.2638 62.6066 64.2316 61.8748C64.7002 61.5142 64.9549 60.8672 64.9855 60.4217C65.0466 59.6263 64.9549 58.8839 64.853 58.1202L64.8327 57.9717C64.7715 57.5369 64.7104 57.1126 64.6595 56.6778C64.5882 55.9566 65.0059 55.3414 65.4032 54.8217L65.5967 54.5884C65.7088 54.4505 65.8106 54.3233 65.9125 54.1748C65.8514 54.1854 65.7903 54.2278 65.7393 54.2702C65.5865 54.3975 65.3828 54.5566 65.0975 54.5566C64.9142 54.5566 64.7206 54.4823 64.5067 54.3445C64.2724 54.1854 64.1501 53.9733 64.1297 53.7187C64.0788 53.0505 64.8021 52.3187 64.8327 52.2869C65.1688 51.8839 65.994 50.9293 66.1876 50.8763L66.2487 50.8551C66.2487 50.7172 66.2487 50.6005 66.2181 50.4839C66.0653 49.7202 65.8412 48.999 65.556 48.1505C65.3522 47.5354 65.7801 46.9839 66.2894 46.7823C67.0025 46.496 67.6749 46.2308 68.3167 45.8914L68.5103 45.796C68.9687 45.5626 69.529 45.2657 69.7735 44.852L69.7429 44.7778C69.7429 44.7778 69.7123 44.6717 69.6818 44.6187C69.5493 44.3642 69.4067 44.1096 69.2539 43.8657C68.8974 43.2611 68.5204 42.6778 68.1333 42.0945L67.6851 41.4051C66.972 40.3126 66.2283 39.1884 65.5865 38.0217C64.9142 36.7914 64.2011 35.4869 64.5678 34.0975C64.6187 33.896 64.69 33.6839 64.7715 33.4611C64.9244 33.0157 65.0772 32.5596 65.067 32.1778C65.067 31.3399 65.0262 30.5975 64.9549 29.8975C64.4048 23.9157 61.6848 18.4748 57.4979 14.9748C53.9425 12.0051 49.3685 10.4354 44.2647 10.4354C43.1848 10.4354 42.0846 10.5096 40.9946 10.6475C34.6378 11.4748 28.9533 14.1157 25.0108 18.0717C20.7322 22.3248 18.4197 28.2854 18.6438 34.4051C18.7864 38.2763 19.8867 42.2429 21.8426 45.8808C22.2807 46.6975 22.7391 47.5036 23.1975 48.299C24.1755 50.0066 25.184 51.7672 25.9582 53.6339C26.4472 54.8111 26.977 56.0945 26.9362 57.3672L26.4472 74.0505C26.4269 74.7611 25.8767 75.1217 25.347 75.1217C25.0414 75.1217 24.7663 75.0051 24.5728 74.8036C24.3894 74.6127 24.2977 74.3475 24.3079 74.0399L24.7867 57.5793C24.8377 55.7551 23.8087 53.8672 22.8919 52.1914L22.6067 51.6717C22.2094 50.9399 21.8019 50.2187 21.3944 49.4975C20.2534 47.4823 19.0819 45.3929 18.2465 43.1445C15.659 36.1339 15.9544 28.6035 19.1022 22.4838C21.7204 17.3717 26.3657 13.1929 32.1724 10.7429C36.1251 9.06718 40.312 8.17627 44.2749 8.17627C46.5262 8.17627 48.6859 8.46263 50.703 9.02475C56.2856 10.5838 61.1041 14.3808 63.926 19.4505C65.3726 22.0596 66.3709 24.9869 66.809 27.9248L66.8497 28.2111C67.0637 29.6535 67.3183 31.2975 67.1146 32.7505C67.0637 33.1429 66.9312 33.5248 66.809 33.8854C66.7071 34.1929 66.6052 34.5005 66.5441 34.8187C66.4932 35.1051 66.7173 35.5717 66.8905 35.9217C67.5832 37.3429 68.4389 38.6263 69.2641 39.8566C70.0587 41.0445 70.8839 42.2854 71.5359 43.5899C71.8822 44.2793 71.9433 44.9475 71.7192 45.5732C71.2201 46.9414 69.4271 47.8429 67.8888 48.4793C68.3473 49.9642 68.6834 51.7248 67.5221 52.6157C67.7055 52.8384 67.8888 53.0823 68.0111 53.3581C68.4389 54.3551 67.8786 55.0763 67.3489 55.7657C67.1554 56.0096 66.9618 56.2748 66.809 56.5399C66.7886 56.5823 66.7784 56.6036 66.7682 56.6248L66.8701 57.346C66.9414 57.8445 67.0025 58.2793 67.0535 58.7142C67.135 59.4672 67.2063 60.443 66.9618 61.3551C66.4117 63.4126 64.6187 64.6323 61.6237 64.9611C61.0125 65.0248 60.391 65.046 59.79 65.0566C58.9648 65.0778 58.1091 65.099 57.2839 65.2581C56.1226 65.4808 54.8594 65.852 54.3195 66.8702C54.024 67.4217 53.9731 68.0581 53.9222 68.6839V68.8005C53.8508 69.5748 53.7999 70.349 53.7694 71.1339C53.7286 72.099 53.7082 73.0642 53.7082 74.0293C53.7082 74.7399 53.1683 75.1111 52.6386 75.1111L52.6488 75.1324Z" fill="#584DA0"/>
<path d="M37.1018 40.1962C35.1663 40.1962 33.4344 39.1462 32.4565 37.3962C32.2629 37.0462 32.2527 36.6644 32.4361 36.3356C32.6398 35.975 33.0371 35.7311 33.4344 35.7311C33.8012 35.7311 34.1068 35.922 34.3003 36.272C34.8912 37.3326 36.0016 38.022 37.1426 38.022C37.6519 38.022 38.1409 37.8841 38.5892 37.6189C40.1376 36.6856 40.6877 34.7659 39.8727 33.1538C39.6894 32.7932 39.6996 32.4114 39.8931 32.072C40.1071 31.7114 40.484 31.478 40.8711 31.478C41.2378 31.478 41.5333 31.6795 41.7166 32.0401C42.3482 33.3129 42.5112 34.8402 42.1547 36.2295C41.7778 37.6932 40.8915 38.8705 39.6486 39.5386C38.854 39.9735 37.9677 40.1962 37.0916 40.1962H37.1018Z" fill="#584DA0"/>
<path d="M46.0894 23.0142C44.6632 23.0142 43.3897 21.9323 43.0739 20.4475C43.0026 20.1081 43.0739 19.7687 43.2675 19.5142C43.4814 19.2384 43.838 19.0581 44.1844 19.0581C44.6631 19.0581 45.0197 19.3657 45.1318 19.8642C45.2744 20.5217 45.7022 20.7551 46.0588 20.7551C46.3339 20.7551 46.5987 20.6278 46.7821 20.4051C46.9247 20.2354 47.0877 19.9278 47.0266 19.4399C46.996 19.196 47.0775 18.9414 47.2507 18.7293C47.4646 18.4748 47.7906 18.3157 48.0861 18.3157C48.6464 18.3157 49.064 18.7505 49.1557 19.4081C49.2576 20.2566 49.0335 21.0945 48.5139 21.7732C48.0046 22.4414 47.2711 22.8657 46.4561 22.9823C46.3237 23.0036 46.2014 23.0036 46.069 23.0036L46.0894 23.0142Z" fill="#584DA0"/>
<path d="M53.7495 29.6111C51.9973 29.6111 50.51 28.4656 50.1229 26.8217C49.6339 24.7323 50.7137 22.7489 52.6799 22.0914C52.7919 22.0489 52.9142 22.0383 53.0161 22.0383C53.5865 22.0383 53.9125 22.5262 53.9838 22.9823C54.0552 23.4595 53.8616 24.0323 53.2606 24.2338C52.3233 24.5414 52.0992 25.3792 52.1909 26.005C52.2928 26.6838 52.8021 27.4156 53.6782 27.4156C53.8209 27.4156 53.9635 27.3944 54.1061 27.3626C54.1978 27.3414 54.2895 27.3308 54.3811 27.3308C54.9924 27.3308 55.3693 27.8505 55.4304 28.3702C55.4814 28.7944 55.3082 29.3565 54.6664 29.5156C54.371 29.5898 54.0552 29.6323 53.7495 29.6323V29.6111Z" fill="#584DA0"/>
<path d="M33.2725 27.0758C32.2741 27.0758 31.3675 26.6728 30.7359 25.9303C29.3504 24.3288 29.381 22.0379 30.8072 20.5C31.0109 20.2773 31.2554 20.1606 31.5203 20.1606C31.938 20.1606 32.3556 20.4682 32.5288 20.8925C32.702 21.3061 32.6205 21.7303 32.3149 22.0591C31.8463 22.5576 31.724 23.2046 31.9685 23.8091C32.2232 24.4349 32.8039 24.8591 33.4151 24.8591C33.7818 24.8591 34.1384 24.7106 34.444 24.4137C34.6478 24.2228 34.8922 24.1167 35.1571 24.1167C35.6155 24.1167 36.0638 24.4455 36.2268 24.8909C36.3694 25.2834 36.2675 25.6864 35.9517 25.994C35.2284 26.6728 34.2505 27.0652 33.2725 27.0652V27.0758Z" fill="#584DA0"/>
<path d="M37.6027 33.0903C37.2359 33.0903 36.9303 32.8994 36.7367 32.5494C35.5958 30.5237 36.1968 27.8403 38.0611 26.7055C38.7131 26.3025 39.4465 26.0903 40.18 26.0903C41.5553 26.0903 42.8593 26.8328 43.6742 28.0737C43.8882 28.4025 43.9187 28.7631 43.7557 29.0918C43.5622 29.4631 43.1547 29.707 42.7268 29.707C42.3703 29.707 42.0545 29.5267 41.8405 29.2085C41.4738 28.6358 40.8422 28.2858 40.18 28.2858C39.8133 28.2858 39.4567 28.4025 39.1511 28.6146C38.2546 29.2403 38.0203 30.4176 38.5806 31.4252C38.7742 31.7752 38.7844 32.1464 38.601 32.4752C38.4074 32.8358 38 33.0797 37.6027 33.0797V33.0903Z" fill="#584DA0"/>
<path d="M31.713 35.1793C31.3259 35.1793 30.949 34.9459 30.735 34.5959C30.5313 34.2565 30.5211 33.8747 30.7045 33.5035C30.9184 33.0686 30.9082 32.6126 30.6943 32.2414C30.46 31.8383 30.0016 31.5838 29.5431 31.5838C29.0847 31.5838 28.718 31.8171 28.4633 32.252C28.2595 32.5914 27.9539 32.7823 27.5872 32.7823C27.1797 32.7823 26.7722 32.5383 26.5787 32.1777C26.4055 31.8489 26.4157 31.4777 26.6194 31.1383C27.2612 30.0353 28.4531 29.3247 29.6552 29.3247C30.2359 29.3247 30.7758 29.4838 31.2648 29.7914C32.8743 30.8096 33.4143 32.8459 32.5585 34.6171C32.3854 34.9883 32.0797 35.1899 31.7232 35.1899L31.713 35.1793Z" fill="#584DA0"/>
<path d="M35.3913 53.3262C34.9125 53.3262 34.556 53.0187 34.4643 52.5202C34.1179 50.7277 34.1179 49.0308 34.4541 47.3232C34.2504 47.3444 34.0466 47.355 33.8327 47.355C33.0687 47.355 32.325 47.2171 31.6221 46.952C29.0855 45.9762 27.1295 43.6429 26.6303 40.9702C23.2176 39.3474 21.1496 35.5717 21.7099 31.9656C21.7507 31.7111 21.7914 31.4459 21.8627 31.1914C21.8423 31.0747 21.8016 30.9687 21.771 30.852C21.6386 30.3853 21.5367 29.908 21.4858 29.4308C21.3839 28.402 21.4858 27.3944 21.771 26.5141C22.3517 24.7535 23.4927 23.3323 24.98 22.4944C25.5607 19.3444 28.2501 16.9687 31.3266 16.9368C32.3148 15.399 34.1485 14.4126 36.0128 14.4126C36.9194 14.4126 37.8159 14.6565 38.5901 15.102L38.6818 15.155C39.6089 14.2111 40.9536 13.6702 42.3696 13.6702C43.5106 13.6702 44.6312 14.0096 45.6295 14.6459C46.363 14.3065 47.127 14.1368 47.9318 14.1368C49.7349 14.1368 51.5075 15.049 52.6689 16.5868C55.3074 16.7565 57.5078 18.9308 57.9357 21.8368C61.5725 23.7247 63.3145 28.2747 61.817 32.0929C60.5741 35.2747 57.5893 37.4171 54.3803 37.4171C53.9117 37.4171 53.4431 37.3747 52.9745 37.2793C52.7198 39.9838 50.7027 42.2323 48.1356 42.6671C48.0031 42.699 47.9114 42.7202 47.8096 42.7308C43.3476 43.1868 40.0062 47.4505 40.3729 52.2232C40.3933 52.5308 40.322 52.7853 40.1488 52.9868C39.9654 53.1884 39.6903 53.305 39.3847 53.305C38.855 53.305 38.2947 52.9444 38.2438 52.2444C37.8057 46.4535 41.8602 41.3202 47.4734 40.5565C47.5039 40.5459 47.5549 40.5247 47.5956 40.5247C48.6755 40.3444 49.684 39.6868 50.2952 38.7747C50.8352 37.9687 51.0185 37.0459 50.8454 36.1232C50.4684 34.1929 48.9607 32.899 47.0863 32.899C46.9131 32.899 46.7399 32.9096 46.5667 32.9308C45.9249 32.9308 45.4971 32.3368 45.4971 31.8171C45.4971 31.2232 45.9147 30.7884 46.5565 30.7035C46.7807 30.6717 47.0048 30.6611 47.2289 30.6611C49.7349 30.6611 52.0067 32.4111 52.7605 34.9247C53.2903 35.0732 53.8404 35.158 54.4007 35.158C56.866 35.158 58.9849 33.7156 59.7897 31.4777C60.9205 28.3277 59.5147 24.7853 56.6623 23.5762C56.1733 23.3747 55.9186 23.0141 55.888 22.5156C55.8371 21.3808 55.3379 20.3308 54.5331 19.6202C54.146 19.2808 53.708 19.0368 53.2801 18.9096C53.0764 18.8459 52.842 18.8353 52.5976 18.8247C52.2308 18.8035 51.8437 18.7717 51.5585 18.602C51.2732 18.4323 51.0695 18.1353 50.8657 17.849C50.6925 17.605 50.5194 17.3505 50.2952 17.1808C49.8063 16.8202 49.3784 16.5974 48.9505 16.4808C48.6245 16.3959 48.3087 16.3535 47.9929 16.3535C47.3409 16.3535 46.7093 16.5444 46.1185 16.905C45.9555 17.0005 45.7823 17.0535 45.6091 17.0535C45.3544 17.0535 45.0794 16.9474 44.8349 16.7353C44.1625 16.1732 43.3577 15.8762 42.5122 15.8762C41.7278 15.8762 40.9536 16.1414 40.3118 16.6293C41.6565 18.4217 41.8704 20.9141 40.8619 22.9929C40.6785 23.3535 40.3831 23.555 40.0265 23.555C39.6394 23.555 39.2625 23.3217 39.0486 22.9717C38.855 22.6323 38.8346 22.2505 39.018 21.8793C39.4459 20.999 39.507 19.949 39.1912 19.0156C38.8754 18.0823 38.2336 17.3399 37.3779 16.9368C36.9398 16.7247 36.4712 16.6293 35.9924 16.6293C34.6986 16.6293 33.4354 17.4141 32.7834 18.6232C32.6102 18.952 32.2435 19.1747 31.9073 19.1747C31.7443 19.1747 31.6323 19.1641 31.5304 19.1641C29.4828 19.1641 27.6796 20.5005 27.1499 22.4096C27.1091 22.5474 27.0888 22.7171 27.0582 22.8868C26.9767 23.4065 26.8952 24.0005 26.4266 24.2232C25.8357 24.5096 25.4181 24.7747 25.0921 25.1035C24.328 25.8671 23.839 26.8005 23.6659 27.8187C23.5945 28.2005 23.5436 28.7838 23.6251 29.3247C23.6659 29.558 23.7474 29.802 23.839 30.0459C23.9613 30.3959 24.0835 30.7671 24.0835 31.1065C24.0835 31.4141 24.002 31.7217 23.9205 32.008C23.8492 32.2732 23.7779 32.549 23.7677 32.8141C23.7474 33.4399 23.7779 33.9384 23.89 34.3944C24.4095 36.6005 25.907 38.3611 27.9037 39.1035C28.3724 39.2732 28.6372 39.6444 28.678 40.1641C28.841 42.2323 30.583 44.3641 32.5695 44.9156C33.0075 45.0323 33.4558 45.0959 33.8938 45.0959C35.2589 45.0959 36.5527 44.5126 37.5307 43.4626C37.7344 43.2399 37.9891 43.1232 38.254 43.1232C38.6716 43.1232 39.0893 43.4308 39.2727 43.8656C39.4357 44.2793 39.3542 44.7035 39.0486 45.0323C38.4169 45.7111 37.6325 46.2838 36.787 46.6762C36.787 46.7823 36.7768 46.8884 36.7462 46.9944C36.298 48.6596 36.2267 50.2717 36.5527 51.9262C36.624 52.2762 36.5527 52.605 36.3388 52.8596C36.1248 53.1353 35.7683 53.305 35.4219 53.305L35.3913 53.3262Z" fill="#584DA0"/>
</g>
<defs>
<clipPath id="clip0_10_76598">
<rect width="55.3675" height="66.9561" fill="white" transform="translate(16.5039 8.17627)"/>
</clipPath>
</defs>
</svg>
