<svg width="83" height="83" viewBox="0 0 83 83" fill="none" xmlns="http://www.w3.org/2000/svg">
<path d="M82 82H3.67521H3L82 3V82Z" stroke="#00B0AC" stroke-width="2"/>
<g clip-path="url(#clip0_10_76596)">
<path d="M66.0015 20.5L64.5015 19L21.9062 61.5L23.5 63L66.0015 20.5Z" fill="#EEEDF5"/>
<path d="M62.7675 76.4576C62.1931 76.4576 61.7207 75.983 61.7207 75.4061C61.7207 74.8291 62.1931 74.3545 62.7675 74.3545C63.3418 74.3545 63.8142 74.8291 63.8142 75.4061C63.8142 75.983 63.3418 76.4576 62.7675 76.4576Z" fill="#584DA0"/>
<path d="M49.4473 25.3685C45.5289 25.3685 42.3516 22.1672 42.3516 18.2402C42.3516 14.3131 45.5382 11.1025 49.4473 11.1025C53.3565 11.1025 56.5431 14.3038 56.5431 18.2308C56.5431 22.1579 53.3565 25.3592 49.4473 25.3592V25.3685ZM49.4473 13.2057C46.6868 13.2057 44.4358 15.467 44.4358 18.2402C44.4358 21.0133 46.6868 23.2746 49.4473 23.2746C52.2079 23.2746 54.4589 21.0133 54.4589 18.2402C54.4589 15.467 52.2079 13.2057 49.4473 13.2057Z" fill="#584DA0"/>
<path d="M40.9806 81.3247C32.3934 81.3247 25.4087 74.3081 25.4087 65.6815C25.4087 60.0143 28.4842 54.775 33.4401 52.0112L33.6161 51.9088L30.0497 47.7212C28.6417 46.0647 28.549 43.6731 29.8181 41.905L31.0687 40.202L29.1789 31.7616C28.9751 30.8589 28.197 30.2261 27.2707 30.2261H21.6015C21.0271 30.2261 20.5547 29.7515 20.5547 29.1745C20.5547 28.5976 21.0271 28.123 21.6015 28.123H27.2707C29.1789 28.123 30.8 29.4258 31.2169 31.2963L32.7176 37.9779L32.9306 37.6708C32.9862 37.5964 38.1459 30.375 39.378 29.4258C40.6934 28.4208 42.1848 27.9089 43.8059 27.9089C44.2135 27.9089 44.6396 27.9462 45.0657 28.002C45.6401 28.0857 46.2144 28.2439 46.7702 28.4673C50.0958 29.798 52.0503 33.204 51.5131 36.7681L49.892 47.5909H60.3319C63.3703 47.5909 66.0474 49.5358 67.0015 52.4393L72.1335 68.1197C72.5225 69.3108 72.4206 70.5857 71.8556 71.7117C71.2998 72.8005 70.3642 73.6195 69.2062 74.0289L69.2618 74.3546H74.8754C75.4498 74.3546 75.9222 74.8292 75.9222 75.4062C75.9222 75.9831 75.4498 76.4578 74.8754 76.4578H68.5207L68.4929 76.588C67.9371 79.3054 65.5286 81.2782 62.7589 81.2782C59.5352 81.2782 56.9044 78.6446 56.9044 75.3969C56.9044 72.1491 59.3685 69.6831 62.5088 69.5435H62.7311L59.1739 58.6184C59.0906 58.3671 58.859 58.1996 58.5903 58.1996H54.6348L54.7645 58.4415C55.941 60.7029 56.5339 63.1317 56.5339 65.6629C56.5339 74.2895 49.5492 81.3061 40.962 81.3061L40.9806 81.3247ZM62.7774 71.5535C60.6653 71.5535 58.9423 73.2844 58.9423 75.4062C58.9423 77.5279 60.6653 79.2588 62.7774 79.2588C64.8895 79.2588 66.6125 77.5279 66.6125 75.4062C66.6125 73.2844 64.8895 71.5535 62.7774 71.5535ZM34.913 53.6304C30.3369 55.9662 27.493 60.5819 27.493 65.6815C27.493 73.1542 33.542 79.2309 40.9806 79.2309C48.4191 79.2309 54.4681 73.1542 54.4681 65.6815C54.4681 60.2097 51.1796 55.3055 46.1032 53.193L45.8624 53.0907V53.3605C45.955 54.8495 45.3714 56.2361 44.2691 57.1853C43.4261 57.9111 42.3423 58.3113 41.2307 58.3113C39.8597 58.3113 38.5628 57.7064 37.6735 56.6641L35.0427 53.5746L34.9223 53.6304H34.913ZM67.8816 72.1863C68.0853 72.1677 68.2891 72.1305 68.4929 72.0654C69.1506 71.8513 69.6879 71.386 70.0029 70.7625C70.3178 70.1391 70.3734 69.4318 70.1604 68.7711L65.0284 53.0907C64.3614 51.0527 62.481 49.6847 60.3504 49.6847H47.4835L49.4659 36.4517C49.8549 33.8554 48.4376 31.38 46.0199 30.4122C45.6215 30.254 45.2047 30.1423 44.7786 30.0772C44.5007 30.04 44.2135 30.0121 43.9356 30.0121C42.7406 30.0121 41.6012 30.3936 40.6285 31.1102C39.6281 31.8546 31.8468 42.6774 31.5133 43.1334C30.8093 44.1012 30.8649 45.4226 31.643 46.3439L39.2576 55.2869C39.7393 55.8452 40.4618 56.1709 41.2492 56.1709C41.8791 56.1709 42.4627 55.9569 42.9073 55.5753C43.9912 54.6448 44.1209 52.9976 43.1945 51.9088L37.3122 45.0039C37.0714 44.7154 37.0529 44.3059 37.2752 44.0081L43.4817 35.4374C43.6762 35.1675 43.9912 35 44.3246 35C44.547 35 44.76 35.0745 44.936 35.2048C45.1584 35.3723 45.3066 35.6142 45.3529 35.8934C45.3992 36.1726 45.3344 36.4517 45.1676 36.6751L39.5632 44.4269L44.7415 50.5129H44.7971C48.1227 51.3691 51.1147 53.3326 53.2361 56.0499L53.2824 56.1151H58.6181C59.7853 56.1151 60.8228 56.8689 61.1841 57.9856L65.1025 70.0367L65.1674 70.0646C66.1586 70.5113 67.0015 71.2185 67.6129 72.1119L67.6592 72.1863H67.7519L67.8816 72.1957V72.1863Z" fill="#584DA0"/>
<path d="M40.9717 67.9338C42.2149 67.9338 43.2227 66.9214 43.2227 65.6725C43.2227 64.4236 42.2149 63.4111 40.9717 63.4111C39.7285 63.4111 38.7207 64.4236 38.7207 65.6725C38.7207 66.9214 39.7285 67.9338 40.9717 67.9338Z" fill="#584DA0"/>
</g>
<defs>
<clipPath id="clip0_10_76596">
<rect width="55.3675" height="70.2222" fill="white" transform="translate(20.5547 11.1025)"/>
</clipPath>
</defs>
</svg>
