<svg width="107" height="106" viewBox="0 0 107 106" fill="none" xmlns="http://www.w3.org/2000/svg">
<path d="M83.2187 25.6671L104.523 4.3623V104.362H4.52344L24.886 84.0023" stroke="#00B0AD" stroke-width="3" stroke-miterlimit="10"/>
<path d="M25.1662 50.6459C24.3571 53.5622 23.9219 56.6346 23.9219 59.8069C23.9219 78.6614 39.2072 93.9468 58.0617 93.9468C71.2424 93.9468 82.677 86.4782 88.3687 75.5429" stroke="#584CA0" stroke-width="3" stroke-miterlimit="10" stroke-linecap="round"/>
<path d="M90.74 69.7257C91.6924 66.5867 92.202 63.2583 92.202 59.8095C92.202 40.955 76.9166 25.6696 58.0621 25.6696C44.8788 25.6696 33.4391 33.1433 27.75 44.0837" stroke="#584CA0" stroke-width="3" stroke-miterlimit="10" stroke-linecap="round"/>
<path d="M45.9567 61.0692C43.532 61.8834 38.4113 63.6014 36.6498 64.1928C36.1787 64.3516 35.6666 64.3797 35.1955 64.2287C33.5594 63.7064 32.4278 62.142 32.5122 60.4393C32.5916 58.8698 33.69 57.5052 35.2006 57.0315C35.6794 56.8804 36.1889 56.924 36.66 57.093C39.4969 58.112 43.0225 59.1438 45.9618 60.1654C46.392 60.3139 46.3894 60.9233 45.9567 61.0666V61.0692Z" stroke="#584CA0" stroke-width="3" stroke-miterlimit="10" stroke-linecap="round"/>
<path d="M49.9944 50.6562C47.6645 49.6038 42.7383 47.3789 41.0459 46.6159C40.5927 46.4111 40.1984 46.0834 39.9552 45.6532C39.1103 44.158 39.3433 42.2403 40.5671 41.0497C41.6937 39.9513 43.4245 39.7004 44.8557 40.3814C45.3089 40.5965 45.652 40.9754 45.8824 41.4209C47.2702 44.0991 49.152 47.2534 50.6114 50.0007C50.8239 50.4027 50.4092 50.8456 49.9944 50.6587V50.6562Z" stroke="#584CA0" stroke-width="3" stroke-miterlimit="10" stroke-linecap="round"/>
<path d="M57.6301 47.1767C56.8159 44.752 55.0979 39.6313 54.5064 37.8698C54.3477 37.3987 54.3195 36.8866 54.4706 36.4155C54.9929 34.7794 56.5573 33.6477 58.2599 33.7322C59.8294 33.8116 61.1941 34.91 61.6678 36.4206C61.8188 36.8994 61.7753 37.4089 61.6063 37.88C60.5873 40.7169 59.5555 44.2425 58.5339 47.1818C58.3854 47.6119 57.776 47.6094 57.6326 47.1767H57.6301Z" stroke="#584CA0" stroke-width="3" stroke-miterlimit="10" stroke-linecap="round"/>
<path d="M70.3964 61.228C72.8211 62.0421 77.9418 63.7601 79.7034 64.3516C80.1745 64.5103 80.6865 64.5385 81.1576 64.3874C82.7937 63.8651 83.9254 62.3007 83.8409 60.5981C83.7615 59.0286 82.6631 57.6639 81.1525 57.1903C80.6737 57.0392 80.1642 57.0827 79.6931 57.2517C76.8562 58.2707 73.3306 59.3026 70.3913 60.3241C69.9612 60.4726 69.9637 61.082 70.3964 61.2254V61.228Z" stroke="#584CA0" stroke-width="3" stroke-miterlimit="10" stroke-linecap="round"/>
<path d="M66.3621 50.8149C68.692 49.7626 73.6181 47.5377 75.3105 46.7747C75.7637 46.5698 76.158 46.2421 76.4012 45.812C77.2462 44.3167 77.0132 42.399 75.7893 41.2084C74.6627 40.11 72.9319 39.8591 71.5007 40.5402C71.0475 40.7553 70.7044 41.1342 70.474 41.5797C69.0863 44.2578 67.2044 47.4122 65.745 50.1595C65.5325 50.5614 65.9473 51.0044 66.3621 50.8175V50.8149Z" stroke="#584CA0" stroke-width="3" stroke-miterlimit="10" stroke-linecap="round"/>
<path d="M49.9944 68.2228C47.6645 69.2751 42.7383 71.5001 41.0459 72.2631C40.5927 72.4679 40.1984 72.7956 39.9552 73.2257C39.1103 74.721 39.3433 76.6387 40.5671 77.8293C41.6937 78.9277 43.4245 79.1786 44.8557 78.4975C45.3089 78.2825 45.652 77.9035 45.8824 77.458C47.2702 74.7799 49.152 71.6255 50.6114 68.8783C50.8239 68.4763 50.4092 68.0333 49.9944 68.2202V68.2228Z" stroke="#584CA0" stroke-width="3" stroke-miterlimit="10" stroke-linecap="round"/>
<path d="M57.6301 71.7024C56.8159 74.127 55.0979 79.2477 54.5064 81.0093C54.3477 81.4804 54.3195 81.9924 54.4706 82.4636C54.9929 84.0996 56.5573 85.2313 58.2599 85.1468C59.8294 85.0674 61.1941 83.969 61.6678 82.4584C61.8188 81.9796 61.7753 81.4701 61.6063 80.999C60.5873 78.1621 59.5555 74.6365 58.5339 71.6972C58.3854 71.2671 57.776 71.2697 57.6326 71.7024H57.6301Z" stroke="#584CA0" stroke-width="3" stroke-miterlimit="10" stroke-linecap="round"/>
<path d="M66.3621 68.0641C68.692 69.1164 73.6181 71.3413 75.3105 72.1043C75.7637 72.3091 76.158 72.6369 76.4012 73.067C77.2462 74.5622 77.0132 76.48 75.7893 77.6705C74.6627 78.7689 72.9319 79.0198 71.5007 78.3388C71.0475 78.1237 70.7044 77.7448 70.474 77.2993C69.0863 74.6211 67.2044 71.4668 65.745 68.7195C65.5325 68.3175 65.9473 67.8746 66.3621 68.0615V68.0641Z" stroke="#584CA0" stroke-width="3" stroke-miterlimit="10" stroke-linecap="round"/>
</svg>
