<svg width="106" height="106" viewBox="0 0 106 106" fill="none" xmlns="http://www.w3.org/2000/svg">
<path d="M89.75 18.8258L104.211 4.3623V104.362H4.21094L22.3665 86.2094" stroke="#00B0AD" stroke-width="3" stroke-miterlimit="10"/>
<path d="M23.9702 61.0615C23.3327 63.3555 22.9922 65.7725 22.9922 68.2689C22.9922 83.101 35.0156 95.1271 49.8504 95.1271C60.2198 95.1271 69.2144 89.251 73.6899 80.6482" stroke="#584CA0" stroke-width="3" stroke-miterlimit="10" stroke-linecap="round"/>
<path d="M40.3267 69.2598C38.4192 69.8999 34.3892 71.2518 33.0041 71.7177C32.6354 71.8406 32.2308 71.8637 31.8596 71.7459C30.5717 71.3362 29.6807 70.1047 29.7499 68.7656C29.8113 67.5315 30.6767 66.4588 31.8647 66.0849C32.2411 65.9672 32.6431 66.0005 33.0143 66.1336C35.2469 66.935 38.0198 67.7466 40.3318 68.5506C40.6698 68.6684 40.6672 69.1446 40.3293 69.2598H40.3267Z" stroke="#584CA0" stroke-width="3" stroke-miterlimit="10" stroke-linecap="round"/>
<path d="M43.4986 74.89C41.6654 75.717 37.7915 77.4683 36.4602 78.0674C36.1043 78.2287 35.7945 78.4847 35.6024 78.8253C34.9367 80.0005 35.1211 81.5085 36.0838 82.4456C36.9697 83.3084 38.3318 83.5082 39.4558 82.9705C39.8117 82.8015 40.0831 82.5045 40.2649 82.1537C41.3556 80.0466 42.8355 77.5656 43.9851 75.4046C44.154 75.0871 43.8263 74.7389 43.5012 74.8874L43.4986 74.89Z" stroke="#584CA0" stroke-width="3" stroke-miterlimit="10" stroke-linecap="round"/>
<path d="M49.5086 77.6245C48.8685 79.5319 47.5166 83.5619 47.0507 84.9471C46.9278 85.3158 46.9047 85.7203 47.0225 86.0916C47.4322 87.3794 48.6637 88.2704 50.0028 88.2013C51.2369 88.1398 52.3096 87.2744 52.6835 86.0864C52.8012 85.7101 52.768 85.3081 52.6348 84.9368C51.8334 82.7042 51.0218 79.9313 50.2178 77.6193C50.1001 77.2814 49.6238 77.2839 49.5086 77.6219V77.6245Z" stroke="#584CA0" stroke-width="3" stroke-miterlimit="10" stroke-linecap="round"/>
<path d="M56.3762 74.762C58.2094 75.589 62.0832 77.3403 63.4146 77.9394C63.7705 78.1007 64.0803 78.3567 64.2723 78.6973C64.938 79.8725 64.7537 81.3805 63.791 82.3176C62.9051 83.1805 61.543 83.3802 60.419 82.8425C60.0631 82.6735 59.7917 82.3765 59.6099 82.0257C58.5192 79.9186 57.0393 77.4376 55.8897 75.2766C55.7207 74.9591 56.0485 74.6109 56.3736 74.7594L56.3762 74.762Z" stroke="#584CA0" stroke-width="3" stroke-miterlimit="10" stroke-linecap="round"/>
<path d="M49.3025 67.8823L47.5 23.7109H85.4317L82.7152 95.1271H68.2568" stroke="#584CA0" stroke-width="3" stroke-miterlimit="10" stroke-linecap="round"/>
<path d="M49.1602 46.0757C49.8233 45.6763 51.1368 44.8749 52.9469 44.4755C61.0914 42.6781 69.0721 51.0735 78.6811 49.0406C79.8717 48.7897 81.4514 48.4031 83.7865 46.8771" stroke="#584CA0" stroke-width="3" stroke-miterlimit="10" stroke-linecap="round"/>
</svg>
