<svg width="124" height="124" viewBox="0 0 124 124" fill="none" xmlns="http://www.w3.org/2000/svg">
<path fill-rule="evenodd" clip-rule="evenodd" d="M123.499 1.20508V123.498H1.20508L16.9155 107.791L19.0366 109.913L8.44889 120.498H120.499V8.44772L108.833 20.1132L106.712 17.9918L123.499 1.20508Z" fill="#00B0AD"/>
<path d="M47.9436 88.944C47.9436 90.231 46.9176 91.323 45.5646 91.323H36.1085C34.7555 91.323 33.7295 90.234 33.7295 88.944C33.7295 87.657 34.7555 86.5859 36.1085 86.5859H45.5646C46.9176 86.5859 47.9436 87.657 47.9436 88.944Z" fill="white"/>
<path fill-rule="evenodd" clip-rule="evenodd" d="M53.9608 49.4785L69.0336 56.3315L67.7919 59.0625L54.0825 52.8294L34.217 63.6648L33.0169 66.6348C32.1744 68.7205 31.0481 71.5099 29.9129 74.3247C28.7777 77.1396 27.6338 79.9793 26.7561 82.166C26.3171 83.2596 25.9452 84.1887 25.6743 84.8694C25.5387 85.2099 25.4291 85.4867 25.3493 85.6901C25.3093 85.792 25.2776 85.8736 25.2541 85.9347C25.2423 85.9653 25.2333 85.9891 25.2266 86.0069C25.2206 86.0231 25.2182 86.0297 25.2182 86.0297L25.2173 86.0323C25.0669 86.4595 24.9844 86.927 24.9844 87.4152C24.9844 89.7493 26.8753 91.6423 29.2114 91.6423C31.0402 91.6423 32.601 90.4797 33.1884 88.8505L33.1888 88.8494C33.2362 88.7181 33.3225 88.5414 33.3771 88.4294C33.4507 88.2788 33.549 88.0823 33.6667 87.8499C33.9027 87.384 34.2259 86.7555 34.6053 86.0228C35.3646 84.5563 36.3555 82.6597 37.3385 80.7841C38.3218 78.9081 39.2981 77.0512 40.0285 75.6634C40.3937 74.9695 40.6975 74.3928 40.91 73.9895L41.2434 73.357C41.2435 73.3569 41.2438 73.3563 42.5705 74.0561L41.2434 73.357L41.5907 72.6987L53.2741 70.7525L53.7671 73.7117L43.5506 75.4135C43.339 75.8151 43.0406 76.3817 42.6832 77.0606C41.9533 78.4475 40.9779 80.3028 39.9957 82.1768C39.0133 84.0512 38.0252 85.9425 37.2694 87.4022C36.8912 88.1325 36.5729 88.7516 36.343 89.2055C36.2278 89.433 36.1371 89.6144 36.073 89.7456C36.0183 89.8577 35.9997 89.8998 35.9991 89.8996C34.9878 92.6639 32.3328 94.6423 29.2114 94.6423C25.2175 94.6423 21.9844 91.4052 21.9844 87.4152C21.9844 86.5895 22.1239 85.785 22.3875 85.0361C22.556 84.5581 24.881 78.7809 27.1307 73.2026C28.2661 70.3871 29.3927 67.5972 30.2353 65.5112L31.6364 62.0438C31.6365 62.0437 31.6368 62.0428 33.0275 62.605L31.6368 62.0428L31.838 61.5452L53.9608 49.4785Z" fill="#584CA0"/>
<path fill-rule="evenodd" clip-rule="evenodd" d="M104.053 64.9199H113.188V67.9199H107.053V105.003H109.372V108.003H104.053V64.9199Z" fill="#584CA0"/>
<path fill-rule="evenodd" clip-rule="evenodd" d="M103.645 27.8438C101.951 27.8438 100.418 28.5273 99.3095 29.6383L99.3025 29.6453L32.4391 94.9037L27.8317 108.724L37.2596 105.104L38.3349 107.905L22.9766 113.801L29.8232 93.2649L97.1932 27.512C98.8441 25.8612 101.13 24.8438 103.645 24.8438C108.688 24.8438 112.78 28.932 112.78 33.9788C112.78 36.5017 111.755 38.7867 110.105 40.4365L110.103 40.4395L56.0331 94.2089L53.9177 92.0817L107.984 38.3152C107.985 38.3146 107.985 38.314 107.986 38.3134C109.095 37.2033 109.78 35.6731 109.78 33.9788C109.78 30.5896 107.032 27.8438 103.645 27.8438Z" fill="#584CA0"/>
<path fill-rule="evenodd" clip-rule="evenodd" d="M95.1619 38.6406L102.797 46.2727L100.676 48.3944L93.041 40.7624L95.1619 38.6406Z" fill="#584CA0"/>
<path fill-rule="evenodd" clip-rule="evenodd" d="M72.2307 82.1037C73.3896 83.4551 74.608 85.3329 74.608 87.4178C74.608 89.5665 74.0642 91.5334 72.3752 92.8847C70.7752 94.1649 68.4364 94.6448 65.473 94.6448H54.0219C49.4147 94.6448 45.4636 95.5716 42.7079 97.4791C40.3564 99.1067 38.7667 101.519 38.4166 105.004H73.1176L73.1271 105.004C73.498 105.009 73.8833 105.016 74.2818 105.023C80.3649 105.136 89.5095 105.305 96.8502 97.8187L98.9922 99.9191C90.713 108.362 80.3339 108.149 74.2914 108.026C73.8722 108.017 73.4739 108.009 73.0986 108.004H35.3438V106.504C35.3438 101.267 37.4721 97.4546 41.0005 95.0124C44.448 92.626 49.0861 91.6448 54.0219 91.6448H65.473C68.2366 91.6448 69.7154 91.1708 70.5011 90.5422C71.1979 89.9847 71.608 89.0881 71.608 87.4178C71.608 86.4456 70.9934 85.2694 69.9534 84.0566C68.9554 82.8929 67.7701 81.9308 67.078 81.4117L68.878 79.0117C69.6499 79.5907 71.0296 80.7031 72.2307 82.1037Z" fill="#584CA0"/>
<path fill-rule="evenodd" clip-rule="evenodd" d="M99.3372 71.6571L83.1641 66.041L84.1482 63.207L100.321 68.8231L99.3372 71.6571Z" fill="#584CA0"/>
</svg>
