<svg width="103" height="103" viewBox="0 0 103 103" fill="none" xmlns="http://www.w3.org/2000/svg">
<g clip-path="url(#clip0_1437_40591)">
<path d="M77.0036 28.3458L101.34 4.0094V101.338H4.01172L13.4114 91.9406" stroke="#00B0AD" stroke-width="3" stroke-miterlimit="10"/>
<path d="M53.1434 33.8953H24.122C21.341 33.8953 19.2852 35.9511 19.2852 38.7321V87.1035C19.2852 89.8845 21.5603 91.9404 24.3413 91.9404H53.1434C55.9244 91.9404 57.9802 89.8845 57.9802 87.1035V38.7321C57.9802 35.9511 55.9244 33.8953 53.1434 33.8953Z" stroke="#584CA0" stroke-width="3" stroke-miterlimit="10"/>
<path d="M51.5311 29.0584V17.7723H25.7344V29.0584" stroke="#584CA0" stroke-width="3" stroke-miterlimit="10"/>
<path d="M80.5526 56.4674V43.569C80.5526 39.1159 76.9443 35.5076 72.4912 35.5076C68.038 35.5076 64.4297 39.1159 64.4297 43.569V56.4674C64.4297 60.9205 68.038 64.5289 72.4912 64.5289C76.9443 64.5289 80.5526 60.9205 80.5526 56.4674Z" stroke="#584CA0" stroke-width="3" stroke-miterlimit="10"/>
<path d="M27.3438 53.2429H40.2421" stroke="#584CA0" stroke-width="3" stroke-miterlimit="10"/>
<path d="M27.3438 62.9165H46.6913" stroke="#584CA0" stroke-width="3" stroke-miterlimit="10"/>
<path d="M70.8789 50.0184H80.5527" stroke="#584CA0" stroke-width="3" stroke-miterlimit="10"/>
<path d="M81.4179 89.5779L91.0917 79.9041C92.6666 78.3292 93.454 76.2659 93.454 74.2025C93.454 72.1392 92.6666 70.0758 91.0917 68.5009C89.5168 66.926 87.4534 66.1385 85.3901 66.1385C83.3267 66.1385 81.2634 66.926 79.6885 68.5009L70.0147 78.1747C68.4398 79.7496 67.6523 81.8129 67.6523 83.8763C67.6523 85.9396 68.4398 88.003 70.0147 89.5779C71.5896 91.1528 73.653 91.9403 75.7163 91.9403C77.7796 91.9403 79.843 91.1528 81.4179 89.5779Z" stroke="#584CA0" stroke-width="3" stroke-miterlimit="10"/>
<path d="M78.9375 77.4272L81.9677 80.4575L87.0015 85.4912" stroke="#584CA0" stroke-width="3" stroke-miterlimit="10"/>
</g>
<defs>
<clipPath id="clip0_1437_40591">
<rect width="103" height="103" fill="white"/>
</clipPath>
</defs>
</svg>
