<svg width="124" height="124" viewBox="0 0 124 124" fill="none" xmlns="http://www.w3.org/2000/svg">
<path fill-rule="evenodd" clip-rule="evenodd" d="M123.5 0.378906V123.5H0.378906L38.7924 85.0869L40.9138 87.2082L7.62155 120.5H120.5V7.62203L90.8789 37.2462L88.7574 35.125L123.5 0.378906Z" fill="#00B0AD"/>
<path fill-rule="evenodd" clip-rule="evenodd" d="M66.8763 16.8789C59.9672 16.8789 54.332 22.542 54.332 29.5702C54.332 36.5985 59.9672 42.2616 66.8763 42.2616C73.7854 42.2616 79.4206 36.5985 79.4206 29.5702C79.4206 22.542 73.7854 16.8789 66.8763 16.8789ZM50.332 29.5702C50.332 20.3709 57.7202 12.8789 66.8763 12.8789C76.0324 12.8789 83.4206 20.3709 83.4206 29.5702C83.4206 38.7696 76.0324 46.2616 66.8763 46.2616C57.7202 46.2616 50.332 38.7696 50.332 29.5702Z" fill="#584CA0"/>
<path fill-rule="evenodd" clip-rule="evenodd" d="M53.0895 53.8708C56.2207 51.8357 60.8033 50.6562 66.8759 50.6562C72.9486 50.6562 77.5312 51.8357 80.6624 53.8708C83.8524 55.9441 85.498 58.9014 85.498 62.0995V81.0049L79.1854 85.2553L77.1812 111.573L73.1927 111.27L75.3441 83.0195L81.498 78.8759V62.0995C81.498 60.4171 80.6799 58.6528 78.4825 57.2246C76.2264 55.7582 72.4979 54.6562 66.8759 54.6562C61.2539 54.6562 57.5255 55.7582 55.2693 57.2246C53.072 58.6528 52.2539 60.4171 52.2539 62.0995V78.8759L58.4078 83.0195L60.5592 111.27L56.5707 111.573L54.5665 85.2553L48.2539 81.0049V62.0995C48.2539 58.9014 49.8995 55.9441 53.0895 53.8708Z" fill="#584CA0"/>
</svg>
