<svg width="124" height="124" viewBox="0 0 124 124" fill="none" xmlns="http://www.w3.org/2000/svg">
<path fill-rule="evenodd" clip-rule="evenodd" d="M123.366 0.378906V123.5H0.245117L21.8236 101.922L23.945 104.043L7.48776 120.5H120.366V7.62155L81.9291 46.0589L79.8077 43.9376L123.366 0.378906Z" fill="#00B0AD"/>
<path fill-rule="evenodd" clip-rule="evenodd" d="M46.8858 91.3179C46.3118 91.321 45.7592 91.094 45.3562 90.683C41.7992 87.1008 39.7993 82.2458 39.7993 77.1853C39.7993 72.1247 41.7992 67.2697 45.3562 63.6875C45.7592 63.2796 46.3088 63.0526 46.8797 63.0526C47.4507 63.0526 48.0003 63.2796 48.4064 63.6875C48.8124 64.0923 49.0384 64.6444 49.0384 65.2179C49.0384 65.7914 48.8124 66.3435 48.4064 66.7514C45.6554 69.5209 44.1105 73.2718 44.1105 77.1853C44.1105 81.0987 45.6554 84.8496 48.4064 87.6191C49.249 88.4656 49.249 89.8365 48.4064 90.6861C48.0033 91.094 47.4568 91.321 46.8858 91.321V91.3179ZM56.5005 83.997C57.3432 83.1505 57.3432 81.7765 56.5005 80.93C55.5143 79.9363 54.9586 78.5869 54.9586 77.1822C54.9586 75.7775 55.5112 74.4311 56.5005 73.4344C57.3432 72.5879 57.3462 71.2169 56.5035 70.3704C55.6608 69.524 54.296 69.5209 53.4533 70.3674C51.658 72.1769 50.6474 74.6274 50.6474 77.1822C50.6474 79.737 51.655 82.1875 53.4533 83.997C53.8564 84.4049 54.406 84.6349 54.9769 84.6349C55.5479 84.6349 56.0974 84.4049 56.5005 83.997ZM40.2909 97.1881C41.1336 96.3416 41.1336 94.9676 40.2909 94.1211C35.824 89.6249 33.3142 83.5339 33.3142 77.1791C33.3142 70.8244 35.824 64.7333 40.2909 60.2402C41.1336 59.3937 41.1305 58.0228 40.2878 57.1763C39.4451 56.3298 38.0773 56.3329 37.2376 57.1794C31.9647 62.4883 29 69.6834 29 77.1822C29 84.6809 31.9616 91.8761 37.2376 97.1881C38.0834 98.0315 39.4482 98.0315 40.2909 97.1881ZM94.8399 102.985C95.1453 102.985 95.4506 102.917 95.7284 102.788C96.2505 102.552 96.6566 102.117 96.8612 101.58C97.0627 101.043 97.0444 100.445 96.8093 99.9208L93.8995 93.4525C93.3316 92.1889 92.4096 91.1216 91.2432 90.3794C90.0769 89.6372 88.7212 89.2538 87.3442 89.2814C83.5521 89.3489 78.8929 89.4194 76.5663 89.3704C75.9251 89.4102 75.2931 89.1894 74.8138 88.76C74.481 88.3092 74.3436 87.7449 74.4291 87.1928C74.6611 85.2575 74.0474 83.3192 72.7498 81.8716C72.6521 81.7428 72.5361 81.5956 72.4445 81.4668L77.6533 78.182C78.4105 77.7036 78.9631 76.9552 79.2013 76.0873C79.4394 75.2193 79.3478 74.2931 78.9417 73.4896C78.5357 72.686 77.8456 72.0634 77.009 71.7444L69.724 68.9688L70.4812 65.0002C70.7866 63.3931 70.4263 61.7308 69.4828 60.3997C68.5394 59.0656 67.0921 58.1792 65.4831 57.9431L62.3016 57.4707L69.8736 44.5557C71.6109 41.5869 72.2918 38.112 71.8002 34.7046L71.2445 30.8525C71.0919 29.8005 70.1973 29.0123 69.1378 29H69.0767C68.9821 29 68.8905 29.0061 68.7958 29.0215C67.6173 29.1932 66.799 30.2912 66.967 31.4781L67.5257 35.3364C67.8768 37.7685 67.3914 40.2435 66.1517 42.3628L58.021 56.2317C57.4164 57.2622 57.3615 58.5258 57.8744 59.6054C58.3904 60.6849 59.4041 61.4333 60.5827 61.6081L64.8511 62.2399C65.2999 62.3074 65.6999 62.5527 65.9624 62.9238C66.225 63.2949 66.3258 63.758 66.2403 64.2028L65.4007 68.6223C65.2449 69.4442 65.3671 70.2968 65.7426 71.0421C66.1212 71.7874 66.7319 72.3885 67.486 72.7504C67.5379 72.778 67.5959 72.8025 67.6509 72.824L74.1298 75.2991L69.7881 78.0379C69.7271 78.0778 69.666 78.1207 69.6111 78.1667C68.9821 78.6359 68.5027 79.2831 68.2371 80.0253C67.9715 80.7675 67.9287 81.571 68.115 82.3378C68.3684 83.1659 68.7928 83.9326 69.3638 84.5828C69.9683 85.141 70.2583 85.9629 70.1332 86.7788C69.9133 88.5361 70.4385 90.3058 71.5834 91.6522C72.8414 93.0231 74.6245 93.7745 76.4778 93.7193C78.8776 93.7653 83.5827 93.6979 87.4175 93.6304C87.9549 93.6212 88.48 93.7715 88.9319 94.0598C89.3838 94.3481 89.741 94.7652 89.9609 95.2559L92.8706 101.724C93.2187 102.5 93.9911 103 94.8399 103V102.985Z" fill="#584CA0"/>
</svg>
