<svg width="123" height="123" viewBox="0 0 123 123" fill="none" xmlns="http://www.w3.org/2000/svg">
<path fill-rule="evenodd" clip-rule="evenodd" d="M58.026 53.9791C59.495 52.5097 61.5771 51.9062 63.9866 51.9062C64.592 51.9062 65.2718 52.0448 65.8945 52.2113C66.5406 52.3839 67.2293 52.6156 67.8862 52.8589C69.1886 53.3412 70.4424 53.8975 71.1283 54.2139L87.2637 61.1273V62.1165V73.0051C87.2637 77.5577 84.6288 80.1631 82.1401 81.5533C80.9107 82.2401 79.696 82.6485 78.7978 82.8859C78.3456 83.0054 77.9658 83.0836 77.6938 83.1327C77.5576 83.1572 77.4478 83.1745 77.3689 83.1861C77.3294 83.1919 77.2975 83.1963 77.2739 83.1994L77.2446 83.2031L77.2347 83.2043L77.2294 83.205C77.2287 83.2051 77.228 83.2051 77.0535 81.7153L77.228 83.2051L75.5535 83.4014V69.7294L72.0215 68.5516V79.8306L68.1214 89.4117L81.4725 103.689L70.3204 112.052L51.3639 90.7292L55.9694 79.2187L55.9999 78.4712L55.9925 75.4117L53.4551 76.6804H46.5691C44.5672 76.6804 42.9882 76.0002 41.7962 74.9405C40.6351 73.9083 39.9093 72.5792 39.4491 71.3519C38.9866 70.1184 38.7619 68.9062 38.6508 68.0172C38.5947 67.5687 38.5664 67.1928 38.552 66.9246C38.5448 66.7904 38.5411 66.6825 38.5392 66.6054C38.5382 66.5669 38.5377 66.536 38.5374 66.5133L38.5372 66.4854L38.5371 66.4762L38.5371 66.4727L38.5371 66.4713C38.5371 66.4707 38.5371 66.4701 40.0371 66.4701L38.5371 66.4701L38.5371 64.9701H50.3044L55.9691 59.3054C56.0683 57.1659 56.6874 55.3182 58.026 53.9791ZM55.9635 63.5537L51.547 67.9701H41.6722C41.7754 68.6592 41.9537 69.4868 42.2581 70.2986C42.6144 71.2489 43.1134 72.0974 43.7894 72.6984C44.4344 73.2718 45.3049 73.6804 46.5691 73.6804H52.7469L55.9843 72.0617L55.9635 63.5537ZM58.9546 59.9362C58.9546 59.9368 58.9546 59.9375 58.9546 59.9382L59.0001 78.5288L58.9459 79.8553L54.8381 90.1219L70.7286 107.996L76.997 103.296L64.6191 90.0586L69.0215 79.2434V64.3887L78.5535 67.5675V79.8351C79.1943 79.6354 79.9401 79.3459 80.6771 78.9342C82.5435 77.8917 84.2637 76.142 84.2637 73.0051V63.1057L69.9086 56.9551L69.8896 56.9463C69.2439 56.6481 68.0569 56.1212 66.8444 55.6722C66.2376 55.4475 65.6439 55.2495 65.12 55.1096C64.5728 54.9633 64.1951 54.9062 63.9866 54.9062C62.0395 54.9062 60.8556 55.392 60.1477 56.1001C59.44 56.808 58.955 57.9915 58.9546 59.9362ZM41.5371 66.4675C41.5371 66.4671 41.5371 66.4669 41.5371 66.4675Z" fill="#584CA0"/>
<path fill-rule="evenodd" clip-rule="evenodd" d="M60.2129 26.7299C55.1037 27.6142 51.6788 32.4729 52.5631 37.5821C53.4474 42.6913 58.3062 46.1162 63.4154 45.2319C68.5245 44.3475 71.9495 39.4888 71.0651 34.3796C70.1808 29.2704 65.322 25.8455 60.2129 26.7299ZM49.6071 38.0938C48.4401 31.352 52.9594 24.9407 59.7012 23.7738C66.443 22.6069 72.8542 27.1262 74.0212 33.8679C75.1881 40.6097 70.6688 47.021 63.927 48.1879C57.1852 49.3548 50.774 44.8355 49.6071 38.0938Z" fill="#584CA0"/>
<path fill-rule="evenodd" clip-rule="evenodd" d="M50.7633 112.882L56.7161 93.0357L53.8426 92.1738L46.7314 115.882H60.717L65.4156 101.789L62.5696 100.841L58.5549 112.882H50.7633Z" fill="#584CA0"/>
<path fill-rule="evenodd" clip-rule="evenodd" d="M122.515 1.16602V122.514H1.16699L42.3301 81.3512L44.4514 83.4725L8.40963 119.514H119.515V8.40866L80.7744 47.1496L78.6531 45.0282L122.515 1.16602Z" fill="#00B0AD"/>
</svg>
