<svg width="163" height="67" viewBox="0 0 163 67" fill="none" xmlns="http://www.w3.org/2000/svg">
<path d="M3.24533 45.7476C2.44537 48.8874 1.7654 52.0973 1.7654 55.3471C1.7654 58.6469 2.34537 61.9368 3.24533 65.1066H2.16538C1.19543 62.0568 0.355469 58.9169 0.355469 55.6871C0.355469 52.2772 1.15543 48.9574 2.25538 45.7576H3.24533V45.7476Z" fill="white"/>
<path d="M5.07422 57.807V55.3971C5.07422 52.4973 6.31416 50.7974 8.92403 50.7974C11.5339 50.7974 12.7738 52.4973 12.7738 55.3971V57.807C12.7738 60.7069 11.5339 62.4068 8.92403 62.4068C6.31416 62.4068 5.07422 60.7069 5.07422 57.807ZM6.40415 56.5971C6.40415 59.5169 6.73414 61.3569 8.92403 61.3569C11.1139 61.3569 11.4439 59.5169 11.4439 56.5971C11.4439 53.6972 11.1139 51.8573 8.92403 51.8573C6.73414 51.8573 6.40415 53.6972 6.40415 56.5971Z" fill="white"/>
<path d="M15.9354 62.1871H14.6055V50.9876H15.8054V52.3775H15.8454C16.3754 51.4676 17.2653 50.7876 18.5053 50.7876C19.6552 50.7876 20.6752 51.4276 21.0452 52.5375C21.5951 51.4276 22.5451 50.7876 23.785 50.7876C25.6449 50.7876 26.6149 52.0675 26.6849 53.8675V62.1871H25.355V54.1974C25.335 53.0875 24.935 51.8475 23.625 51.8475C21.9451 51.8475 21.3051 53.5275 21.3051 54.9874V62.177H19.9852V54.1874C19.9652 53.0775 19.5652 51.8376 18.2553 51.8376C16.5754 51.8376 15.9354 53.5175 15.9354 54.9774V62.1871Z" fill="white"/>
<path d="M34.6039 60.8169H34.5639C33.854 61.8768 32.774 62.4068 31.4041 62.4068C29.4142 62.4068 28.3242 61.0569 28.3242 59.1069C28.3242 55.1871 32.264 55.5871 34.5239 55.4071V54.4772C34.5239 52.8372 34.0339 51.8473 32.264 51.8473C31.0441 51.8473 30.0741 52.4473 30.0741 53.7672H28.6542C28.7642 51.6173 30.4241 50.7773 32.374 50.7773C33.504 50.7773 35.8439 50.8873 35.8439 53.7372V59.3569C35.8439 60.1569 35.8439 60.8569 35.9738 62.1668H34.6039V60.8169ZM34.5139 56.4771C32.614 56.5471 29.7342 56.3271 29.7342 59.047C29.7342 60.3069 30.3741 61.3468 31.7441 61.3468C33.274 61.3468 34.5139 59.9769 34.5139 58.517V56.4771Z" fill="white"/>
<path d="M41.0829 60.5071H41.1229L43.8428 51.0176H45.1227L41.8029 62.187H40.273L36.9531 51.0176H38.3931L41.0829 60.5071Z" fill="white"/>
<path d="M47.1932 56.8771V57.737C47.1932 59.287 47.6132 61.3469 49.7131 61.3469C51.373 61.3469 52.193 60.2869 52.173 58.777H53.5629C53.4029 61.4768 51.943 62.4068 49.7131 62.4068C47.7932 62.4068 45.8633 61.6368 45.8633 58.247V55.5071C45.8633 52.2773 47.2132 50.7974 49.7131 50.7974C53.5629 50.7974 53.5629 53.5672 53.5629 56.8771H47.1932ZM52.233 55.8171C52.233 53.3372 51.833 51.8573 49.7131 51.8573C47.5932 51.8573 47.1932 53.3372 47.1932 55.8171H52.233Z" fill="white"/>
<path d="M55.8633 62.187V46.2178H57.1932V62.187H55.8633Z" fill="white"/>
<path d="M59.4844 57.807V55.3971C59.4844 52.4973 60.7243 50.7974 63.3342 50.7974C65.9441 50.7974 67.184 52.4973 67.184 55.3971V57.807C67.184 60.7069 65.9441 62.4068 63.3342 62.4068C60.7243 62.4068 59.4844 60.7069 59.4844 57.807ZM60.8143 56.5971C60.8143 59.5169 61.1443 61.3569 63.3342 61.3569C65.5241 61.3569 65.8541 59.5169 65.8541 56.5971C65.8541 53.6972 65.5241 51.8573 63.3342 51.8573C61.1443 51.8573 60.8143 53.6972 60.8143 56.5971Z" fill="white"/>
<path d="M71.2039 56.2373L68.434 51.0176H70.024L72.0639 55.2174L74.2738 51.0176H75.7337L72.8138 56.1773L76.0437 62.197H74.4237L71.9639 57.3473L69.394 62.197H67.9141L71.2039 56.2373Z" fill="white"/>
<path d="M76.8008 57.807V55.3971C76.8008 52.4973 78.0407 50.7974 80.6506 50.7974C83.2605 50.7974 84.5004 52.4973 84.5004 55.3971V57.807C84.5004 60.7069 83.2605 62.4068 80.6506 62.4068C78.0407 62.4068 76.8008 60.7069 76.8008 57.807ZM78.1307 56.5971C78.1307 59.5169 78.4607 61.3569 80.6506 61.3569C82.8405 61.3569 83.1705 59.5169 83.1705 56.5971C83.1705 53.6972 82.8405 51.8573 80.6506 51.8573C78.4607 51.8573 78.1307 53.6972 78.1307 56.5971Z" fill="white"/>
<path d="M86.8008 62.187V46.2178H88.1307V62.187H86.8008Z" fill="white"/>
<path d="M90.4219 57.807V55.3971C90.4219 52.4973 91.6618 50.7974 94.2717 50.7974C96.8816 50.7974 98.1215 52.4973 98.1215 55.3971V57.807C98.1215 60.7069 96.8816 62.4068 94.2717 62.4068C91.6618 62.4068 90.4219 60.7069 90.4219 57.807ZM91.7518 56.5971C91.7518 59.5169 92.0818 61.3569 94.2717 61.3569C96.4616 61.3569 96.7916 59.5169 96.7916 56.5971C96.7916 53.6972 96.4616 51.8573 94.2717 51.8573C92.0818 51.8573 91.7518 53.6972 91.7518 56.5971Z" fill="white"/>
<path d="M101.31 62.1868H99.9805V51.0174H101.31V52.3873H101.35C101.99 51.4573 102.85 50.7974 104.05 50.7974C106.82 50.7974 107.1 52.8573 107.1 54.3172V62.1968H105.77V54.3872C105.77 53.0773 105.26 51.8673 103.71 51.8673C102.52 51.8673 101.3 52.6873 101.3 55.1872V62.1868H101.31Z" fill="white"/>
<path d="M110.291 56.8771V57.737C110.291 59.287 110.711 61.3469 112.811 61.3469C114.471 61.3469 115.291 60.2869 115.271 58.777H116.661C116.501 61.4768 115.041 62.4068 112.811 62.4068C110.891 62.4068 108.961 61.6368 108.961 58.247V55.5071C108.961 52.2773 110.311 50.7974 112.811 50.7974C116.661 50.7974 116.661 53.5672 116.661 56.8771H110.291ZM115.331 55.8171C115.331 53.3372 114.931 51.8573 112.811 51.8573C110.691 51.8573 110.291 53.3372 110.291 55.8171H115.331Z" fill="white"/>
<path d="M119.49 45.7478C120.6 48.9576 121.39 52.2775 121.39 55.6773C121.39 58.9072 120.55 62.047 119.58 65.0969H118.5C119.41 61.937 119.98 58.6372 119.98 55.3373C119.98 52.0875 119.29 48.8776 118.5 45.7378H119.49V45.7478Z" fill="white"/>
<path d="M143.939 36.0482C143.979 36.0382 144.009 36.0682 144.019 36.0982C144.219 37.0081 144.629 37.7181 145.219 38.1981C145.869 38.688 146.749 38.998 147.869 39.068L148.219 39.088C149.719 39.178 150.929 38.968 151.669 38.4281C152.309 38.0181 152.639 37.3281 152.689 36.3682C152.749 35.4382 152.499 34.7182 151.919 34.2283C151.249 33.6083 150.079 33.2483 148.579 33.1583C146.239 33.0183 144.379 32.3583 143.069 31.2184C141.669 29.9785 140.999 28.2685 141.119 26.1786C141.239 24.1287 142.109 22.5088 143.659 21.4489C145.099 20.4789 147.019 20.0489 149.359 20.1889L149.679 20.2089C151.569 20.3189 153.109 20.8689 154.339 21.8788C155.088 22.4588 155.678 23.1888 156.118 24.0587C156.138 24.0987 153.399 26.7586 153.399 26.7586C153.359 26.7686 153.329 26.7386 153.319 26.7086C153.119 25.7987 152.709 25.0887 152.119 24.6087C151.479 24.0887 150.589 23.8088 149.469 23.7388L149.149 23.7188C147.609 23.6288 146.409 23.8388 145.669 24.3787C145.029 24.7887 144.699 25.4787 144.649 26.4086C144.589 27.3686 144.839 28.0886 145.419 28.5785C146.089 29.1985 147.259 29.5585 148.799 29.6485C151.139 29.7885 152.959 30.4484 154.279 31.5884C155.678 32.8283 156.348 34.5382 156.228 36.5881C156.098 38.668 155.228 40.288 153.689 41.3479C152.249 42.3179 150.359 42.7578 148.019 42.6079L147.669 42.5879C145.809 42.4779 144.239 41.9279 143.009 40.9279C142.279 40.348 141.679 39.618 141.239 38.748" fill="white"/>
<path d="M3.95466 36.0482C3.99465 36.0382 4.02465 36.0682 4.03465 36.0982C4.23464 37.0081 4.64462 37.7181 5.23459 38.1981C5.88456 38.688 6.76452 38.998 7.88447 39.068L8.23445 39.088C9.73438 39.178 10.9443 38.968 11.6843 38.4281C12.3243 38.0181 12.6542 37.3281 12.7042 36.3682C12.7642 35.4382 12.5142 34.7182 11.9343 34.2283C11.2643 33.6083 10.0944 33.2483 8.59443 33.1583C6.25454 33.0183 4.39463 32.3583 3.0847 31.2184C1.68476 29.9785 1.0148 28.2685 1.13479 26.1786C1.25478 24.1287 2.12474 22.5088 3.67467 21.4489C5.1146 20.4789 7.03451 20.0489 9.3744 20.1889L9.69438 20.2089C11.5843 20.3189 13.1242 20.8689 14.3542 21.8788C15.1041 22.4588 15.6941 23.1888 16.1341 24.0587C16.1541 24.0987 13.4142 26.7586 13.4142 26.7586C13.3742 26.7686 13.3442 26.7386 13.3342 26.7086C13.1342 25.7987 12.7242 25.0887 12.1343 24.6087C11.4943 24.0887 10.6043 23.8088 9.48439 23.7388L9.16441 23.7188C7.62448 23.6288 6.42454 23.8388 5.68457 24.3787C5.0446 24.7887 4.71462 25.4787 4.66462 26.4086C4.60462 27.3686 4.85461 28.0886 5.43458 28.5785C6.10455 29.1985 7.2745 29.5585 8.81442 29.6485C11.1543 29.7885 12.9742 30.4484 14.2942 31.5884C15.6941 32.8283 16.3641 34.5382 16.2441 36.5881C16.1141 38.668 15.2441 40.288 13.7042 41.3479C12.2643 42.3179 10.3743 42.7578 8.03446 42.6079L7.68447 42.5879C5.82456 42.4779 4.25464 41.9279 3.0247 40.9279C2.29474 40.348 1.69476 39.618 1.25479 38.748" fill="white"/>
<path d="M36.2633 42.6384H32.1834L26.5037 32.8188L22.9439 37.4086V42.6384H19.4141V23.6993L22.9439 20.1694V31.6289L31.8035 20.1694H36.2633L28.8236 29.799L36.2633 42.6384Z" fill="white"/>
<path d="M46.3544 42.6383H42.8246V34.5186L37.2148 23.3292L39.5847 20.1693L44.5845 30.1489L55.624 10.0798L61.4137 6.72998L46.3544 34.5186V42.6383Z" fill="white"/>
<path d="M66.9505 21.5494C68.2704 22.4493 69.1604 23.7993 69.6504 25.4992L66.2805 26.4991C65.9905 25.5692 65.5406 24.8592 64.9306 24.4092C64.2606 23.9293 63.3307 23.6993 62.2407 23.6993C60.8008 23.6993 59.7408 24.0892 59.0309 24.8592C58.2909 25.6892 57.9109 27.0091 57.9109 28.709V34.0988C57.9109 35.7987 58.3009 37.1186 59.0309 37.9486C59.7408 38.7185 60.7908 39.0985 62.2407 39.0985C63.3307 39.0985 64.2606 38.8385 64.9306 38.3886C65.5406 37.9386 65.9905 37.2286 66.2805 36.2987L69.6504 37.2886C69.1704 38.9885 68.2704 40.3385 66.9505 41.2384C65.6706 42.1684 64.0906 42.6184 62.2307 42.6184C59.7908 42.6184 57.7709 41.8184 56.391 40.2785C55.0411 38.7985 54.3711 36.7186 54.3711 34.0888V28.699C54.3711 26.0691 55.0411 23.9793 56.391 22.5093C57.7709 20.9694 59.7908 20.1694 62.2307 20.1694C64.0906 20.1694 65.6706 20.6194 66.9505 21.5494Z" fill="white"/>
<path d="M83.5792 39.1085L82.1493 42.6384H73.1797V20.1694H76.7095V39.0985H83.5792V39.1085Z" fill="white"/>
<path d="M99.8809 42.6381L98.4409 38.5983H90.2913L88.8514 42.6381H85.1016L93.1212 20.1792H95.6211L103.641 42.6381H99.8809ZM97.181 35.0585L94.3611 27.1689L91.5713 35.0585H97.181Z" fill="white"/>
<path d="M114.289 20.1694C116.659 20.1694 118.589 20.7794 119.969 22.0293C121.379 23.2793 122.119 25.1092 122.119 27.3591C122.119 29.569 121.379 31.3989 119.969 32.6888C118.909 33.5888 117.599 34.1688 115.959 34.4187L122.119 42.6284H117.719L111.959 34.9587C111.749 34.6787 111.419 34.5187 111.069 34.5187H109.96V42.6384H106.43V20.1694H114.289ZM109.96 30.9889H114.289C115.769 30.9889 116.919 30.6689 117.629 30.029C118.269 29.449 118.589 28.549 118.589 27.3691C118.589 26.1491 118.269 25.2492 117.629 24.6692C116.919 24.0292 115.769 23.7093 114.289 23.7093H109.96V30.9889Z" fill="white"/>
<path d="M132.789 42.6381H129.26V34.5185L123.84 23.709L126.02 20.1792L131.03 30.1587L135.999 20.1792H139.949L132.789 34.5185V42.6381Z" fill="white"/>
<path opacity="0.5" d="M67.0513 4.75977L61.1016 15.0193L72.251 11.7794L74.4409 7.99961L67.0513 4.75977Z" fill="white"/>
<path opacity="0.65" d="M77.6007 2.56006L74.4409 7.9998L78.7307 9.88971L72.251 11.7796L70.3711 15.0195L83.7205 11.1396L86.4403 6.43987L77.6007 2.56006Z" fill="white"/>
<path opacity="0.2" d="M74.4438 7.99951L72.2539 11.7793L78.7336 9.88942L74.4438 7.99951Z" fill="white"/>
<path opacity="0.8" d="M107.27 7.50964L90.1705 0L86.4407 6.43969L91.7904 8.78958L83.7208 11.1395L81.4609 15.0193L107.27 7.50964Z" fill="white"/>
<path opacity="0.57" d="M86.4425 6.43994L83.7227 11.1397L91.7923 8.78983L86.4425 6.43994Z" fill="white"/>
<path d="M157.569 20.739H156.539V20.249H159.209V20.739H158.189V23.1789H157.569V20.739ZM159.469 20.249H160.459L161.049 22.3889L161.689 20.249H162.649V23.1789H162.049V20.659L161.289 23.1789H160.789L160.039 20.659V23.1789H159.479V20.249H159.469Z" fill="white"/>
<path d="M130.527 45.6479V46.8279H127.098V49.8177L127.128 49.8477C127.348 49.4078 128.058 49.0778 128.757 49.0778C130.227 49.0778 130.907 50.1777 130.907 52.5376C130.907 54.1775 130.697 56.1374 128.128 56.1374C125.998 56.1374 125.598 54.9675 125.598 53.5876H126.958C126.958 54.3875 127.268 55.1375 128.168 55.1375C129.457 55.1375 129.547 53.8776 129.547 52.8776C129.547 51.3777 129.507 50.2177 128.228 50.2177C127.488 50.2177 127.088 50.7377 126.968 51.4177H125.738V45.6479H130.527Z" fill="white"/>
<path d="M138.028 50.8275C138.028 53.5074 138.038 56.1373 135.258 56.1373C132.478 56.1373 132.488 53.5074 132.488 50.8275C132.488 48.0577 132.448 45.4878 135.258 45.4878C138.068 45.4878 138.028 48.0577 138.028 50.8275ZM133.848 51.0975C133.848 52.8274 133.748 55.0073 135.258 55.0073C136.768 55.0073 136.668 52.8274 136.668 51.0975C136.668 48.3277 136.658 46.6277 135.258 46.6277C133.868 46.6277 133.848 48.3277 133.848 51.0975Z" fill="white"/>
<path d="M145.418 55.9174V51.4876C145.418 50.8376 145.238 50.2477 144.408 50.2477C144.088 50.2477 143.658 50.4377 143.508 50.6777C143.318 50.9976 143.268 51.3776 143.268 51.6176V55.9274H142.228V50.8576C142.228 50.4177 142.198 49.9677 142.168 49.5277H143.268V50.3277H143.298C143.598 49.6477 144.148 49.4077 144.898 49.4077C145.478 49.4077 146.148 49.6477 146.388 50.2277C146.738 49.5477 147.328 49.4077 147.908 49.4077C148.578 49.4077 149.658 49.5577 149.658 51.0676V55.9274H148.618V51.4976C148.618 50.8476 148.438 50.2577 147.608 50.2577C147.218 50.2577 147.098 50.2677 146.818 50.4977C146.518 50.7476 146.468 51.3876 146.468 51.6276V55.9374H145.418V55.9174Z" fill="white"/>
<path d="M154.538 49.5275H155.578V56.5671C155.578 57.997 154.628 58.337 153.218 58.337C152.158 58.337 151.188 57.8071 151.278 56.6271H152.448C152.458 57.2271 152.858 57.5471 153.428 57.5471C154.148 57.5471 154.538 57.1071 154.538 56.4471V55.1172H154.498C154.228 55.6272 153.648 55.9171 153.088 55.9171C151.348 55.9171 151.008 54.4272 151.008 52.5273C151.008 49.5874 152.488 49.3975 153.008 49.3975C153.678 49.3975 154.208 49.6874 154.498 50.3074H154.528V49.5275H154.538ZM153.318 50.2574C152.138 50.2574 152.098 51.6773 152.098 52.5273C152.098 54.5772 152.568 55.0572 153.338 55.0572C154.588 55.0572 154.558 53.5773 154.558 52.6873C154.558 51.7373 154.628 50.2574 153.318 50.2574Z" fill="white"/>
<path d="M128.377 61.5872C128.397 60.7872 128.007 60.5772 127.707 60.5772C127.107 60.5772 126.687 60.8672 126.687 62.1871C126.687 63.7571 126.887 64.327 127.707 64.327C127.887 64.327 128.437 64.137 128.407 63.2571H129.237C129.267 64.617 128.247 64.967 127.707 64.967C126.677 64.967 125.867 64.657 125.867 62.5171C125.867 61.0972 126.027 59.9272 127.707 59.9272C128.677 59.9272 129.247 60.4972 129.197 61.5772H128.377V61.5872Z" fill="white"/>
<path d="M132.505 64.1768H132.485C132.245 64.7368 131.875 64.9768 131.265 64.9768C130.235 64.9768 129.945 64.3168 129.945 63.3868C129.945 61.9169 131.385 61.8469 132.485 61.8769C132.505 61.237 132.515 60.537 131.665 60.537C131.135 60.537 130.855 60.887 130.905 61.3969H130.055C130.095 60.317 130.665 59.937 131.695 59.937C132.945 59.937 133.265 60.577 133.265 61.3969V63.7268C133.265 64.1068 133.305 64.5068 133.365 64.8768H132.505V64.1768ZM130.735 63.4368C130.735 63.9068 130.965 64.3268 131.495 64.3268C131.975 64.3268 132.575 64.0268 132.495 62.4669C131.745 62.4769 130.735 62.4069 130.735 63.4368Z" fill="white"/>
<path d="M135.028 60.607H135.048C135.318 60.157 135.648 59.937 136.158 59.937C136.938 59.937 137.718 60.247 137.718 62.3769C137.718 63.5868 137.678 64.9768 136.118 64.9768C135.658 64.9768 135.318 64.7768 135.058 64.3868H135.028V66.7067H134.238V60.027H135.028V60.607ZM136.908 62.3669C136.908 61.6369 136.908 60.577 135.918 60.577C134.948 60.577 135.038 61.9169 135.038 62.6569C135.038 63.2969 135.078 64.3268 135.948 64.3268C136.788 64.3268 136.908 63.6668 136.908 62.3669Z" fill="white"/>
<path d="M139.925 64.977C138.875 64.977 138.225 64.517 138.255 63.4071H139.145C139.145 63.6871 139.155 64.3371 139.955 64.3371C140.425 64.3371 140.785 64.0971 140.785 63.5971C140.785 62.7371 138.365 62.7171 138.365 61.2672C138.365 60.7572 138.675 59.9473 140.035 59.9473C140.895 59.9473 141.635 60.3572 141.575 61.3172H140.705C140.715 60.8072 140.445 60.5372 139.945 60.5372C139.525 60.5372 139.195 60.7672 139.195 61.1872C139.195 62.0372 141.615 62.0172 141.615 63.4971C141.615 64.557 140.885 64.977 139.925 64.977Z" fill="white"/>
<path d="M144.867 60.0271H145.657V63.8669C145.657 64.2069 145.677 64.5369 145.707 64.8769H144.867V64.2869H144.837C144.577 64.7269 144.117 64.9668 143.607 64.9668C142.767 64.9668 142.297 64.5469 142.297 63.7169V60.0171H143.087V63.3769C143.087 63.9669 143.357 64.3569 143.917 64.3569C144.337 64.3569 144.867 64.0369 144.867 63.2369V60.0271Z" fill="white"/>
<path d="M147.356 64.8769H146.566V57.9473H147.356V64.8769Z" fill="white"/>
<path d="M149.006 62.7071C149.006 64.057 149.366 64.327 149.986 64.327C150.526 64.327 150.806 63.8971 150.826 63.4071H151.686C151.676 64.477 151.016 64.967 149.996 64.967C148.966 64.967 148.156 64.657 148.156 62.5171C148.156 61.0972 148.316 59.9272 149.996 59.9272C151.376 59.9272 151.726 60.6872 151.726 62.2871V62.6971H149.006V62.7071ZM150.896 62.1171C150.896 60.7072 150.506 60.5372 149.926 60.5372C149.426 60.5372 149.016 60.7772 149.006 62.1171H150.896Z" fill="white"/>
<path d="M153.987 64.977C152.937 64.977 152.287 64.517 152.317 63.4071H153.207C153.207 63.6871 153.217 64.3371 154.017 64.3371C154.487 64.3371 154.847 64.0971 154.847 63.5971C154.847 62.7371 152.427 62.7171 152.427 61.2672C152.427 60.7572 152.737 59.9473 154.097 59.9473C154.957 59.9473 155.697 60.3572 155.637 61.3172H154.767C154.777 60.8072 154.507 60.5372 154.007 60.5372C153.587 60.5372 153.257 60.7672 153.257 61.1872C153.257 62.0372 155.677 62.0172 155.677 63.4971C155.677 64.557 154.947 64.977 153.987 64.977Z" fill="white"/>
</svg>
