<svg xmlns="http://www.w3.org/2000/svg" xmlns:xlink="http://www.w3.org/1999/xlink" width="174" height="72" viewBox="0 0 174 72">
  <defs>
    <clipPath id="clip-skyclarys_logo">
      <rect width="174" height="72"/>
    </clipPath>
  </defs>
  <g id="skyclarys_logo" clip-path="url(#clip-skyclarys_logo)">
    <g id="Group_9" data-name="Group 9" transform="translate(1.701 0.794)">
      <g id="Group_2" data-name="Group 2" transform="translate(0.299 48.756)">
        <g id="Group_1" data-name="Group 1">
          <path id="Path_1" data-name="Path 1" d="M3.376,48.759A41.713,41.713,0,0,0,1.8,58.949,37.747,37.747,0,0,0,3.376,69.3H2.225A33.134,33.134,0,0,1,.3,59.3a32.422,32.422,0,0,1,2.02-10.542Z" transform="translate(-0.299 -48.759)" fill="#6e7a7d"/>
          <path id="Path_2" data-name="Path 2" d="M5.322,61.556V59c0-3.076,1.315-4.883,4.086-4.883S13.494,55.92,13.494,59v2.56c0,3.076-1.315,4.884-4.086,4.884S5.322,64.631,5.322,61.556Zm1.409-1.291c0,3.1.353,5.048,2.677,5.048s2.678-1.949,2.678-5.048c0-3.076-.353-5.026-2.678-5.026S6.731,57.189,6.731,60.265Z" transform="translate(-0.299 -48.759)" fill="#6e7a7d"/>
          <path id="Path_3" data-name="Path 3" d="M16.849,66.205h-1.41V54.324h1.269V55.8h.047a3.191,3.191,0,0,1,2.818-1.69,2.764,2.764,0,0,1,2.7,1.855,3.137,3.137,0,0,1,2.913-1.855c1.972,0,3,1.362,3.076,3.264v8.829H26.85V57.729c-.023-1.174-.445-2.49-1.831-2.49-1.785,0-2.466,1.785-2.466,3.335v7.632H21.146V57.729c-.024-1.174-.447-2.49-1.832-2.49-1.784,0-2.465,1.785-2.465,3.335Z" transform="translate(-0.3 -48.759)" fill="#6e7a7d"/>
          <path id="Path_4" data-name="Path 4" d="M36.661,64.749h-.047a3.805,3.805,0,0,1-3.358,1.69c-2.113,0-3.263-1.432-3.263-3.5,0-4.157,4.179-3.734,6.575-3.922v-.986c0-1.737-.518-2.795-2.4-2.795-1.291,0-2.324.635-2.324,2.043h-1.5c.117-2.277,1.878-3.169,3.945-3.169,1.2,0,3.686.117,3.686,3.146v5.964a25.31,25.31,0,0,0,.141,2.983H36.661Zm-.093-4.6c-2.02.07-5.073-.164-5.073,2.725,0,1.338.681,2.441,2.137,2.441a3.045,3.045,0,0,0,2.936-3Z" transform="translate(-0.301 -48.759)" fill="#6e7a7d"/>
          <path id="Path_5" data-name="Path 5" d="M43.538,64.42h.047l2.889-10.073h1.361L44.313,66.205h-1.62L39.171,54.347H40.7Z" transform="translate(-0.301 -48.759)" fill="#6e7a7d"/>
          <path id="Path_6" data-name="Path 6" d="M50.016,60.57v.916c0,1.644.446,3.827,2.677,3.827A2.429,2.429,0,0,0,55.3,62.59h1.479c-.165,2.864-1.715,3.85-4.086,3.85-2.043,0-4.087-.822-4.087-4.414V59.115c0-3.429,1.434-5,4.087-5,4.086,0,4.086,2.935,4.086,6.457Zm5.354-1.127c0-2.63-.423-4.2-2.677-4.2s-2.677,1.574-2.677,4.2Z" transform="translate(-0.302 -48.759)" fill="#6e7a7d"/>
          <path id="Path_7" data-name="Path 7" d="M59.216,66.205V49.252h1.41V66.205Z" transform="translate(-0.302 -48.759)" fill="#6e7a7d"/>
          <path id="Path_8" data-name="Path 8" d="M63.066,61.556V59c0-3.076,1.315-4.883,4.086-4.883S71.237,55.92,71.237,59v2.56c0,3.076-1.315,4.884-4.085,4.884S63.066,64.631,63.066,61.556Zm1.409-1.291c0,3.1.352,5.048,2.677,5.048s2.676-1.949,2.676-5.048c0-3.076-.351-5.026-2.676-5.026S64.475,57.189,64.475,60.265Z" transform="translate(-0.302 -48.759)" fill="#6e7a7d"/>
          <path id="Path_9" data-name="Path 9" d="M75.506,59.889l-2.935-5.542h1.692l2.16,4.462,2.348-4.462h1.55l-3.1,5.471,3.428,6.388H78.935l-2.607-5.143L73.6,66.205H72.031Z" transform="translate(-0.303 -48.759)" fill="#6e7a7d"/>
          <path id="Path_10" data-name="Path 10" d="M81.444,61.556V59c0-3.076,1.315-4.883,4.087-4.883S89.616,55.92,89.616,59v2.56c0,3.076-1.315,4.884-4.085,4.884S81.444,64.631,81.444,61.556Zm1.409-1.291c0,3.1.353,5.048,2.678,5.048s2.677-1.949,2.677-5.048c0-3.076-.353-5.026-2.677-5.026S82.853,57.189,82.853,60.265Z" transform="translate(-0.303 -48.759)" fill="#6e7a7d"/>
          <path id="Path_11" data-name="Path 11" d="M92.055,66.205V49.252h1.409V66.205Z" transform="translate(-0.304 -48.759)" fill="#6e7a7d"/>
          <path id="Path_12" data-name="Path 12" d="M95.9,61.556V59c0-3.076,1.314-4.883,4.085-4.883s4.086,1.807,4.086,4.883v2.56c0,3.076-1.315,4.884-4.086,4.884S95.9,64.631,95.9,61.556Zm1.408-1.291c0,3.1.353,5.048,2.677,5.048s2.676-1.949,2.676-5.048c0-3.076-.351-5.026-2.676-5.026S97.312,57.189,97.312,60.265Z" transform="translate(-0.304 -48.759)" fill="#6e7a7d"/>
          <path id="Path_13" data-name="Path 13" d="M107.453,66.205h-1.409V54.347h1.409V55.8h.047a3.428,3.428,0,0,1,2.865-1.69c2.935,0,3.24,2.184,3.24,3.733v8.36H112.2v-8.29c0-1.385-.54-2.677-2.183-2.677-1.268,0-2.56.87-2.56,3.523Z" transform="translate(-0.305 -48.759)" fill="#6e7a7d"/>
          <path id="Path_14" data-name="Path 14" d="M116.982,60.57v.916c0,1.644.446,3.827,2.677,3.827a2.428,2.428,0,0,0,2.607-2.723h1.479c-.165,2.864-1.714,3.85-4.086,3.85-2.042,0-4.086-.822-4.086-4.414V59.115c0-3.429,1.433-5,4.086-5,4.086,0,4.086,2.935,4.086,6.457Zm5.354-1.127c0-2.63-.422-4.2-2.677-4.2s-2.677,1.574-2.677,4.2Z" transform="translate(-0.305 -48.759)" fill="#6e7a7d"/>
          <path id="Path_15" data-name="Path 15" d="M126.747,48.759A32.394,32.394,0,0,1,128.766,59.3a33.163,33.163,0,0,1-1.924,10H125.69a37.748,37.748,0,0,0,1.574-10.354,41.665,41.665,0,0,0-1.574-10.19Z" transform="translate(-0.306 -48.759)" fill="#6e7a7d"/>
        </g>
      </g>
      <g id="Group_4" data-name="Group 4" transform="translate(1.125 7.339)">
        <g id="Group_3" data-name="Group 3">
          <path id="Path_16" data-name="Path 16" d="M152.7,38.464a.069.069,0,0,1,.082.054,3.8,3.8,0,0,0,1.279,2.227,5.081,5.081,0,0,0,2.81.92l.374.023a5.8,5.8,0,0,0,3.658-.7,2.6,2.6,0,0,0,1.088-2.186,2.571,2.571,0,0,0-.818-2.267,5.8,5.8,0,0,0-3.547-1.136,9.606,9.606,0,0,1-5.845-2.06A6.3,6.3,0,0,1,149.715,28a6.28,6.28,0,0,1,2.693-5.023,9.607,9.607,0,0,1,6.052-1.339l.339.021a8.319,8.319,0,0,1,4.943,1.767,6.738,6.738,0,0,1,1.888,2.31c.019.038-2.887,2.864-2.887,2.864a.069.069,0,0,1-.082-.053,3.8,3.8,0,0,0-1.278-2.228,4.825,4.825,0,0,0-2.81-.921l-.34-.02a5.845,5.845,0,0,0-3.693.7,2.572,2.572,0,0,0-1.086,2.151,2.6,2.6,0,0,0,.816,2.3,5.843,5.843,0,0,0,3.582,1.139,9.494,9.494,0,0,1,5.811,2.058,6.279,6.279,0,0,1,2.066,5.311,6.3,6.3,0,0,1-2.695,5.056,9.486,9.486,0,0,1-6.017,1.341l-.374-.022a8.4,8.4,0,0,1-4.942-1.767,6.994,6.994,0,0,1-1.878-2.308" transform="translate(-1.133 -7.34)" fill="#584ca0"/>
          <path id="Path_17" data-name="Path 17" d="M4.125,38.464a.069.069,0,0,1,.082.054,3.806,3.806,0,0,0,1.278,2.227,5.087,5.087,0,0,0,2.811.92l.374.023a5.8,5.8,0,0,0,3.658-.7A2.6,2.6,0,0,0,13.415,38.8a2.571,2.571,0,0,0-.818-2.267A5.8,5.8,0,0,0,9.051,35.4,9.609,9.609,0,0,1,3.2,33.34,6.3,6.3,0,0,1,1.141,28a6.28,6.28,0,0,1,2.693-5.023,9.605,9.605,0,0,1,6.052-1.339l.339.021a8.319,8.319,0,0,1,4.943,1.767,6.738,6.738,0,0,1,1.888,2.31c.019.038-2.887,2.864-2.887,2.864a.069.069,0,0,1-.082-.053,3.8,3.8,0,0,0-1.278-2.228A4.828,4.828,0,0,0,10,25.394l-.339-.02a5.843,5.843,0,0,0-3.693.7A2.572,2.572,0,0,0,4.88,28.222a2.6,2.6,0,0,0,.816,2.3,5.843,5.843,0,0,0,3.582,1.139,9.5,9.5,0,0,1,5.811,2.058,6.281,6.281,0,0,1,2.066,5.311,6.3,6.3,0,0,1-2.695,5.056,9.486,9.486,0,0,1-6.017,1.341L8.069,45.4a8.4,8.4,0,0,1-4.943-1.767A7,7,0,0,1,1.249,41.33" transform="translate(-1.125 -7.34)" fill="#584ca0"/>
          <path id="Path_18" data-name="Path 18" d="M38.415,45.448H34.091l-6.028-10.42-3.78,4.87v5.551H20.538V25.357l3.746-3.746V33.767l9.4-12.156h4.733l-7.9,10.216Z" transform="translate(-1.126 -7.34)" fill="#584ca0"/>
          <path id="Path_19" data-name="Path 19" d="M49.124,45.447H45.379V36.831L39.428,24.957l2.511-3.347L47.252,32.2,58.966,10.9l6.146-3.559L49.124,36.831Z" transform="translate(-1.127 -7.339)" fill="#584ca0"/>
          <path id="Path_20" data-name="Path 20" d="M70.989,23.076a7.3,7.3,0,0,1,2.861,4.188L70.274,28.32a4.188,4.188,0,0,0-1.43-2.213,4.885,4.885,0,0,0-2.86-.75,4.383,4.383,0,0,0-3.406,1.226,6.1,6.1,0,0,0-1.192,4.087V36.39a6.1,6.1,0,0,0,1.192,4.086A4.383,4.383,0,0,0,65.985,41.7a5.159,5.159,0,0,0,2.86-.749,4.2,4.2,0,0,0,1.43-2.213L73.85,39.8a7.305,7.305,0,0,1-2.861,4.189,8.292,8.292,0,0,1-5,1.464,8.025,8.025,0,0,1-6.2-2.486,9.43,9.43,0,0,1-2.146-6.572V30.67A9.435,9.435,0,0,1,59.787,24.1a8.028,8.028,0,0,1,6.2-2.486A8.285,8.285,0,0,1,70.989,23.076Z" transform="translate(-1.128 -7.34)" fill="#584ca0"/>
          <path id="Path_21" data-name="Path 21" d="M88.634,41.7,87.12,45.448H77.6V21.611h3.747V41.7Z" transform="translate(-1.129 -7.34)" fill="#584ca0"/>
          <path id="Path_22" data-name="Path 22" d="M105.937,45.448,104.4,41.157H95.756l-1.532,4.291H90.239l8.514-23.837h2.656l8.513,23.837Zm-2.861-8.036-3-8.378-2.963,8.378Z" transform="translate(-1.13 -7.34)" fill="#584ca0"/>
          <path id="Path_23" data-name="Path 23" d="M121.231,21.611a8.689,8.689,0,0,1,6.027,1.976,7.255,7.255,0,0,1,2.282,5.653,7.356,7.356,0,0,1-2.282,5.652A8.393,8.393,0,0,1,123,36.73l6.538,8.718h-4.665L118.759,37.3a1.181,1.181,0,0,0-.944-.472h-1.181v8.616h-3.746V21.611Zm-4.6,11.476h4.6a5.239,5.239,0,0,0,3.542-1.022,3.631,3.631,0,0,0,1.021-2.826,3.664,3.664,0,0,0-1.021-2.861,5.239,5.239,0,0,0-3.542-1.022h-4.6Z" transform="translate(-1.131 -7.34)" fill="#584ca0"/>
          <path id="Path_24" data-name="Path 24" d="M140.867,45.448h-3.746V36.832l-5.751-11.475,2.312-3.746,5.312,10.59,5.278-10.59h4.189l-7.594,15.221Z" transform="translate(-1.132 -7.34)" fill="#584ca0"/>
        </g>
      </g>
      <path id="Path_25" data-name="Path 25" d="M71.1,5.252,64.783,16.142,76.619,12.7l2.32-4Z" transform="translate(-0.003 0)" fill="#584ca0"/>
      <path id="Path_26" data-name="Path 26" d="M82.291,2.916,78.94,8.7l4.557,2-6.877,2-2,3.444,14.16-4.12,2.891-4.986Z" transform="translate(-0.004 0)" fill="#00b0ac"/>
      <path id="Path_27" data-name="Path 27" d="M78.94,8.7l-2.32,4,6.877-2Z" transform="translate(-0.004 0)" fill="#272660"/>
      <path id="Path_28" data-name="Path 28" d="M113.78,8.174,95.634.206l-3.96,6.83,5.678,2.493-8.569,2.493-2.389,4.12Z" transform="translate(-0.005 0)" fill="#cddc2c"/>
      <path id="Path_29" data-name="Path 29" d="M91.675,7.036l-2.891,4.986,8.569-2.493Z" transform="translate(-0.005 0)" fill="#7ec352"/>
      <g id="Group_5" data-name="Group 5" transform="translate(166.401 21.199)">
        <path id="Path_30" data-name="Path 30" d="M170.7,23.287a2.145,2.145,0,1,1-2.138-2.087A2.1,2.1,0,0,1,170.7,23.287Zm-3.755,0a1.618,1.618,0,0,0,1.63,1.668,1.669,1.669,0,0,0-.013-3.335A1.622,1.622,0,0,0,166.944,23.287Zm1.286,1.095h-.484V22.294a4.251,4.251,0,0,1,.8-.063,1.3,1.3,0,0,1,.726.152.583.583,0,0,1,.2.459.535.535,0,0,1-.432.484v.025a.615.615,0,0,1,.381.509,1.609,1.609,0,0,0,.153.522h-.522a1.8,1.8,0,0,1-.165-.509c-.039-.229-.166-.331-.433-.331h-.229Zm.012-1.184h.23c.267,0,.484-.089.484-.3,0-.191-.141-.319-.446-.319a1.138,1.138,0,0,0-.268.026Z" transform="translate(-166.41 -21.2)" fill="#584ca0"/>
      </g>
      <g id="Group_6" data-name="Group 6" transform="translate(133.197 48.473)">
        <path id="Path_31" data-name="Path 31" d="M138.45,48.649V49.9h-3.644v3.173l.032.032a2,2,0,0,1,1.727-.817c1.555,0,2.278,1.163,2.278,3.675,0,1.743-.22,3.818-2.953,3.818-2.262,0-2.686-1.242-2.686-2.7h1.445c0,.849.33,1.65,1.288,1.65,1.367,0,1.461-1.335,1.461-2.4,0-1.587-.047-2.828-1.4-2.828a1.344,1.344,0,0,0-1.336,1.272h-1.3V48.649Z" transform="translate(-133.204 -48.476)" fill="#6e7a7d"/>
        <path id="Path_32" data-name="Path 32" d="M146.41,54.146c0,2.844.016,5.64-2.938,5.64s-2.937-2.8-2.937-5.64c0-2.937-.047-5.67,2.937-5.67S146.41,51.209,146.41,54.146Zm-4.43.283c0,1.837-.11,4.147,1.492,4.147s1.493-2.31,1.493-4.147c0-2.937-.016-4.744-1.493-4.744S141.98,51.492,141.98,54.429Z" transform="translate(-133.204 -48.476)" fill="#6e7a7d"/>
        <path id="Path_33" data-name="Path 33" d="M154.256,59.55v-4.7c0-.686-.188-1.318-1.076-1.318a1.276,1.276,0,0,0-.954.457,2.015,2.015,0,0,0-.255.994V59.55h-1.1V54.173c0-.471-.027-.941-.068-1.411h1.17v.847H152a1.64,1.64,0,0,1,1.693-.981,1.66,1.66,0,0,1,1.586.873,1.627,1.627,0,0,1,1.613-.873,1.606,1.606,0,0,1,1.855,1.76V59.55h-1.1v-4.7c0-.686-.188-1.318-1.076-1.318a1,1,0,0,0-.833.255,1.781,1.781,0,0,0-.376,1.2V59.55Z" transform="translate(-133.205 -48.476)" fill="#6e7a7d"/>
        <path id="Path_34" data-name="Path 34" d="M163.934,52.762h1.1v7.474c0,1.518-1.009,1.881-2.5,1.881-1.128,0-2.15-.565-2.056-1.815h1.237a.946.946,0,0,0,1.035.982,1.085,1.085,0,0,0,1.183-1.17V58.7h-.041a1.7,1.7,0,0,1-1.492.847c-1.841,0-2.2-1.586-2.2-3.6,0-3.117,1.573-3.319,2.123-3.319a1.636,1.636,0,0,1,1.587.968h.027Zm-1.291.78c-1.25,0-1.29,1.506-1.29,2.4,0,2.179.5,2.689,1.317,2.689,1.33,0,1.291-1.573,1.291-2.514C163.961,55.114,164.027,53.542,162.643,53.542Z" transform="translate(-133.205 -48.476)" fill="#6e7a7d"/>
      </g>
      <g id="Group_8" data-name="Group 8" transform="translate(133.494 61.698)">
        <g id="Group_7" data-name="Group 7">
          <path id="Path_35" data-name="Path 35" d="M136.17,65.561c.02-.846-.4-1.07-.713-1.07-.643,0-1.08.307-1.08,1.713,0,1.67.214,2.271,1.08,2.271.193,0,.773-.2.743-1.131h.876a1.619,1.619,0,0,1-1.619,1.813c-1.091,0-1.956-.325-1.956-2.6,0-1.508.173-2.751,1.956-2.751a1.473,1.473,0,0,1,1.578,1.752Z" transform="translate(-133.501 -61.701)" fill="#6e7a7d"/>
          <path id="Path_36" data-name="Path 36" d="M140.561,68.312h-.02a1.261,1.261,0,0,1-1.294.845c-1.089,0-1.4-.7-1.4-1.691,0-1.559,1.528-1.629,2.7-1.6.02-.683.031-1.426-.866-1.426a.76.76,0,0,0-.8.916h-.907c.041-1.151.652-1.549,1.742-1.549,1.324,0,1.67.682,1.67,1.549v2.475a8.172,8.172,0,0,0,.1,1.223h-.917Zm-1.884-.784c0,.5.244.947.8.947.509,0,1.141-.317,1.059-1.977C139.746,66.508,138.677,66.438,138.677,67.528Z" transform="translate(-133.501 -61.701)" fill="#6e7a7d"/>
          <path id="Path_37" data-name="Path 37" d="M143.236,64.522h.02a1.275,1.275,0,0,1,1.182-.713c.825,0,1.66.326,1.66,2.587,0,1.283-.041,2.761-1.7,2.761a1.3,1.3,0,0,1-1.13-.622h-.031V71H142.4V63.911h.835Zm1.986,1.874c0-.773,0-1.9-1.049-1.9-1.029,0-.937,1.426-.937,2.211,0,.683.04,1.773.968,1.773C145.1,68.475,145.222,67.772,145.222,66.4Z" transform="translate(-133.501 -61.701)" fill="#6e7a7d"/>
          <path id="Path_38" data-name="Path 38" d="M148.427,69.157c-1.11,0-1.8-.489-1.772-1.67h.947c0,.295.011.988.856.988a.778.778,0,0,0,.886-.785c0-.916-2.567-.937-2.567-2.475,0-.539.326-1.406,1.773-1.406.916,0,1.7.438,1.629,1.458h-.927a.722.722,0,0,0-.8-.825.7.7,0,0,0-.795.692c0,.906,2.567.885,2.567,2.454C150.22,68.719,149.446,69.157,148.427,69.157Z" transform="translate(-133.502 -61.701)" fill="#6e7a7d"/>
          <path id="Path_39" data-name="Path 39" d="M153.671,63.911h.835v4.075c0,.357.021.713.051,1.07h-.886v-.622h-.031a1.479,1.479,0,0,1-1.3.723,1.211,1.211,0,0,1-1.385-1.324V63.911h.835v3.565c0,.622.285,1.039.876,1.039a1.057,1.057,0,0,0,1.009-1.192Z" transform="translate(-133.502 -61.701)" fill="#6e7a7d"/>
          <path id="Path_40" data-name="Path 40" d="M156.317,69.056h-.836V61.7h.836Z" transform="translate(-133.502 -61.701)" fill="#6e7a7d"/>
          <path id="Path_41" data-name="Path 41" d="M158.068,66.753c0,1.436.387,1.722,1.039,1.722a.924.924,0,0,0,.9-.978h.916a1.565,1.565,0,0,1-1.792,1.66c-1.09,0-1.956-.325-1.956-2.6,0-1.508.173-2.751,1.956-2.751,1.467,0,1.833.8,1.833,2.506v.438Zm2.006-.631c0-1.5-.418-1.68-1.029-1.68-.529,0-.968.254-.977,1.68Z" transform="translate(-133.502 -61.701)" fill="#6e7a7d"/>
          <path id="Path_42" data-name="Path 42" d="M163.351,69.157c-1.11,0-1.8-.489-1.773-1.67h.948c0,.295.01.988.855.988a.778.778,0,0,0,.886-.785c0-.916-2.566-.937-2.566-2.475,0-.539.326-1.406,1.772-1.406.917,0,1.7.438,1.63,1.458h-.927a.723.723,0,0,0-.8-.825.7.7,0,0,0-.795.692c0,.906,2.568.885,2.568,2.454C165.144,68.719,164.369,69.157,163.351,69.157Z" transform="translate(-133.502 -61.701)" fill="#6e7a7d"/>
        </g>
      </g>
    </g>
  </g>
</svg>
