<svg width="171" height="70" viewBox="0 0 171 70" fill="none" xmlns="http://www.w3.org/2000/svg">
<path d="M3.37408 48.7134C2.53463 52.0082 1.82109 55.3766 1.82109 58.7868C1.82109 62.2496 2.4297 65.7018 3.37408 69.0282H2.24082C1.22298 65.8278 0.341553 62.5329 0.341553 59.1436C0.341553 55.5654 1.18101 52.0817 2.33526 48.7239H3.37408V48.7134Z" fill="white"/>
<path d="M5.29434 61.3679V58.8391C5.29434 55.796 6.5955 54.0122 9.33422 54.0122C12.0729 54.0122 13.3741 55.796 13.3741 58.8391V61.3679C13.3741 64.4109 12.0729 66.1948 9.33422 66.1948C6.5955 66.1948 5.29434 64.4109 5.29434 61.3679ZM6.68994 60.0983C6.68994 63.1623 7.03621 65.093 9.33422 65.093C11.6322 65.093 11.9785 63.1623 11.9785 60.0983C11.9785 57.0552 11.6322 55.1245 9.33422 55.1245C7.03621 55.1245 6.68994 57.0552 6.68994 60.0983Z" fill="white"/>
<path d="M16.6899 65.9637H15.2943V54.2113H16.5535V55.6699H16.5955C17.1516 54.715 18.0855 54.0015 19.3867 54.0015C20.5934 54.0015 21.6637 54.673 22.052 55.8378C22.6291 54.673 23.6259 54.0015 24.9271 54.0015C26.8788 54.0015 27.8967 55.3446 27.9701 57.2334V65.9637H26.5745V57.5796C26.5535 56.4149 26.1338 55.1137 24.7592 55.1137C22.9963 55.1137 22.3248 56.8766 22.3248 58.4086V65.9532H20.9397V57.5691C20.9187 56.4044 20.499 55.1033 19.1244 55.1033C17.3615 55.1033 16.6899 56.8661 16.6899 58.3981V65.9637Z" fill="white"/>
<path d="M36.2808 64.5264H36.2388C35.4938 65.6386 34.3605 66.1948 32.923 66.1948C30.8348 66.1948 29.6911 64.7782 29.6911 62.732C29.6911 58.6187 33.8254 59.0384 36.1968 58.8496V57.8737C36.1968 56.1528 35.6827 55.114 33.8254 55.114C32.5452 55.114 31.5274 55.7436 31.5274 57.1287H30.0373C30.1528 54.8726 31.8946 53.9912 33.9408 53.9912C35.1265 53.9912 37.5819 54.1066 37.5819 57.0972V62.9944C37.5819 63.8338 37.5819 64.5683 37.7184 65.943H36.2808V64.5264ZM36.1864 59.9723C34.1926 60.0458 31.1706 59.8149 31.1706 62.6691C31.1706 63.9912 31.8422 65.0825 33.2797 65.0825C34.8852 65.0825 36.1864 63.6449 36.1864 62.1129V59.9723Z" fill="white"/>
<path d="M43.0802 64.2012H43.1222L45.9764 54.2432H47.3195L43.8357 65.9641H42.2303L38.7466 54.2432H40.2576L43.0802 64.2012Z" fill="white"/>
<path d="M49.4917 60.3921V61.2945C49.4917 62.9209 49.9324 65.0825 52.1359 65.0825C53.8778 65.0825 54.7383 63.9702 54.7173 62.3858H56.1758C56.0079 65.2189 54.4759 66.1948 52.1359 66.1948C50.1213 66.1948 48.0961 65.3868 48.0961 61.8296V58.9545C48.0961 55.5652 49.5126 54.0122 52.1359 54.0122C56.1758 54.0122 56.1758 56.9188 56.1758 60.3921H49.4917ZM54.7802 59.2798C54.7802 56.6775 54.3605 55.1245 52.1359 55.1245C49.9114 55.1245 49.4917 56.6775 49.4917 59.2798H54.7802Z" fill="white"/>
<path d="M58.5892 65.9642V49.2065H59.9848V65.9642H58.5892Z" fill="white"/>
<path d="M62.3878 61.3679V58.8391C62.3878 55.796 63.6889 54.0122 66.4276 54.0122C69.1664 54.0122 70.4675 55.796 70.4675 58.8391V61.3679C70.4675 64.4109 69.1664 66.1948 66.4276 66.1948C63.6889 66.1948 62.3878 64.4109 62.3878 61.3679ZM63.7834 60.0983C63.7834 63.1623 64.1296 65.093 66.4276 65.093C68.7256 65.093 69.0719 63.1623 69.0719 60.0983C69.0719 57.0552 68.7256 55.1245 66.4276 55.1245C64.1296 55.1245 63.7834 57.0552 63.7834 60.0983Z" fill="white"/>
<path d="M74.6858 59.7206L71.7792 54.2432H73.4476L75.5882 58.6503L77.9072 54.2432H79.4392L76.3752 59.6576L79.7645 65.9745H78.0646L75.4833 60.8853L72.7865 65.9745H71.2335L74.6858 59.7206Z" fill="white"/>
<path d="M80.562 61.3679V58.8391C80.562 55.796 81.8632 54.0122 84.6019 54.0122C87.3406 54.0122 88.6418 55.796 88.6418 58.8391V61.3679C88.6418 64.4109 87.3406 66.1948 84.6019 66.1948C81.8632 66.1948 80.562 64.4109 80.562 61.3679ZM81.9576 60.0983C81.9576 63.1623 82.3039 65.093 84.6019 65.093C86.8999 65.093 87.2462 63.1623 87.2462 60.0983C87.2462 57.0552 86.8999 55.1245 84.6019 55.1245C82.3039 55.1245 81.9576 57.0552 81.9576 60.0983Z" fill="white"/>
<path d="M91.0552 65.9642V49.2065H92.4508V65.9642H91.0552Z" fill="white"/>
<path d="M94.8537 61.3679V58.8391C94.8537 55.796 96.1548 54.0122 98.8936 54.0122C101.632 54.0122 102.933 55.796 102.933 58.8391V61.3679C102.933 64.4109 101.632 66.1948 98.8936 66.1948C96.1548 66.1948 94.8537 64.4109 94.8537 61.3679ZM96.2493 60.0983C96.2493 63.1623 96.5955 65.093 98.8936 65.093C101.192 65.093 101.538 63.1623 101.538 60.0983C101.538 57.0552 101.192 55.1245 98.8936 55.1245C96.5955 55.1245 96.2493 57.0552 96.2493 60.0983Z" fill="white"/>
<path d="M106.281 65.9639H104.885V54.2431H106.281V55.6806H106.323C106.994 54.7048 107.897 54.0122 109.156 54.0122C112.063 54.0122 112.356 56.1738 112.356 57.7058V65.9744H110.961V57.7793C110.961 56.4046 110.426 55.135 108.799 55.135C107.55 55.135 106.27 55.9954 106.27 58.6187V65.9639H106.281Z" fill="white"/>
<path d="M115.704 60.3921V61.2945C115.704 62.9209 116.144 65.0825 118.348 65.0825C120.09 65.0825 120.95 63.9702 120.929 62.3858H122.388C122.22 65.2189 120.688 66.1948 118.348 66.1948C116.333 66.1948 114.308 65.3868 114.308 61.8296V58.9545C114.308 55.5652 115.725 54.0122 118.348 54.0122C122.388 54.0122 122.388 56.9188 122.388 60.3921H115.704ZM120.992 59.2798C120.992 56.6775 120.572 55.1245 118.348 55.1245C116.123 55.1245 115.704 56.6775 115.704 59.2798H120.992Z" fill="white"/>
<path d="M125.357 48.7131C126.522 52.0814 127.351 55.5652 127.351 59.1329C127.351 62.5222 126.47 65.817 125.452 69.0174H124.319C125.273 65.7016 125.871 62.2389 125.871 58.7761C125.871 55.3658 125.147 51.9975 124.319 48.7026H125.357V48.7131Z" fill="white"/>
<path d="M151.013 38.5336C151.055 38.5231 151.087 38.5546 151.097 38.586C151.307 39.5409 151.737 40.2859 152.356 40.7896C153.038 41.3038 153.962 41.6291 155.137 41.7025L155.504 41.7235C157.078 41.8179 158.348 41.5976 159.124 41.0309C159.796 40.6007 160.142 39.8767 160.195 38.8694C160.258 37.8935 159.995 37.138 159.387 36.6238C158.684 35.9732 157.456 35.5955 155.882 35.501C153.427 35.3541 151.475 34.6616 150.1 33.4654C148.631 32.1642 147.928 30.3699 148.054 28.1768C148.18 26.0257 149.093 24.3258 150.719 23.2135C152.23 22.1957 154.245 21.7445 156.7 21.8914L157.036 21.9124C159.019 22.0278 160.635 22.6049 161.926 23.6647C162.713 24.2733 163.332 25.0393 163.794 25.9522C163.815 25.9942 160.94 28.7854 160.94 28.7854C160.898 28.7959 160.866 28.7644 160.856 28.7329C160.646 27.7781 160.216 27.033 159.597 26.5294C158.925 25.9837 157.991 25.6899 156.816 25.6165L156.48 25.5955C154.864 25.501 153.605 25.7214 152.829 26.288C152.157 26.7182 151.811 27.4423 151.758 28.4181C151.695 29.4255 151.958 30.181 152.566 30.6952C153.269 31.3457 154.497 31.7235 156.113 31.8179C158.568 31.9648 160.478 32.6574 161.863 33.8536C163.332 35.1548 164.035 36.9491 163.909 39.1002C163.773 41.2828 162.86 42.9827 161.244 44.095C159.733 45.1128 157.75 45.5745 155.294 45.4171L154.927 45.3961C152.975 45.2807 151.328 44.7036 150.037 43.6542C149.271 43.0456 148.642 42.2796 148.18 41.3667" fill="white"/>
<path d="M4.11914 38.5336C4.16112 38.5231 4.1926 38.5546 4.20309 38.586C4.41295 39.5409 4.84317 40.2859 5.46227 40.7896C6.14433 41.3038 7.06773 41.6291 8.24296 41.7025L8.61023 41.7235C10.1842 41.8179 11.4539 41.5976 12.2304 41.0309C12.9019 40.6007 13.2482 39.8767 13.3007 38.8694C13.3636 37.8935 13.1013 37.138 12.4927 36.6238C11.7897 35.9732 10.562 35.5955 8.98798 35.501C6.53257 35.3541 4.58084 34.6616 3.20624 33.4654C1.73719 32.1642 1.03415 30.3699 1.16006 28.1768C1.28598 26.0257 2.19889 24.3258 3.82533 23.2135C5.33635 22.1957 7.35105 21.7445 9.80645 21.8914L10.1422 21.9124C12.1254 22.0278 13.7414 22.6049 15.0321 23.6647C15.819 24.2733 16.4381 25.0393 16.8998 25.9522C16.9208 25.9942 14.0457 28.7854 14.0457 28.7854C14.0037 28.7959 13.9722 28.7644 13.9618 28.7329C13.7519 27.7781 13.3217 27.033 12.7026 26.5294C12.031 25.9837 11.0971 25.6899 9.92188 25.6165L9.5861 25.5955C7.97015 25.501 6.71096 25.7214 5.93446 26.288C5.2629 26.7182 4.91663 27.4423 4.86416 28.4181C4.8012 29.4255 5.06353 30.181 5.67213 30.6952C6.37518 31.3457 7.60288 31.7235 9.21883 31.8179C11.6742 31.9648 13.584 32.6574 14.9691 33.8536C16.4381 35.1548 17.1412 36.9491 17.0153 39.1002C16.8789 41.2828 15.966 42.9827 14.35 44.095C12.839 45.1128 10.8558 45.5745 8.40036 45.4171L8.0331 45.3961C6.08137 45.2807 4.43394 44.7036 3.14328 43.6542C2.37727 43.0456 1.74768 42.2796 1.28598 41.3667" fill="white"/>
<path d="M38.0226 45.4488H33.7413L27.7812 35.1445L24.0456 39.9609V45.4488H20.3416V25.5747L24.0456 21.8706V33.8958L33.3426 21.8706H38.0226L30.2156 31.9755L38.0226 45.4488Z" fill="white"/>
<path d="M48.6102 45.4491H44.9061V36.9286L39.0194 25.1868L41.5063 21.8709L46.7529 32.3431L58.3374 11.2833L64.4129 7.76807L48.6102 36.9286V45.4491Z" fill="white"/>
<path d="M70.2262 23.3187C71.6113 24.2631 72.5452 25.6796 73.0593 27.4635L69.5231 28.5128C69.2188 27.5369 68.7466 26.7919 68.1066 26.3197C67.4035 25.816 66.4277 25.5747 65.2839 25.5747C63.7729 25.5747 62.6606 25.9839 61.9156 26.7919C61.1391 27.6628 60.7403 29.0479 60.7403 30.8318V36.4876C60.7403 38.2715 61.1496 39.6566 61.9156 40.5275C62.6606 41.3355 63.7624 41.7342 65.2839 41.7342C66.4277 41.7342 67.4035 41.4614 68.1066 40.9892C68.7466 40.517 69.2188 39.772 69.5231 38.7961L73.0593 39.8349C72.5557 41.6188 71.6113 43.0354 70.2262 43.9797C68.8831 44.9556 67.2251 45.4278 65.2734 45.4278C62.7131 45.4278 60.5934 44.5884 59.1454 42.9724C57.7288 41.4194 57.0258 39.2368 57.0258 36.4771V30.8213C57.0258 28.0616 57.7288 25.8685 59.1454 24.326C60.5934 22.7101 62.7131 21.8706 65.2734 21.8706C67.2251 21.8706 68.8831 22.3428 70.2262 23.3187Z" fill="white"/>
<path d="M87.6763 41.7447L86.1758 45.4488H76.7634V21.8706H80.4675V41.7342H87.6763V41.7447Z" fill="white"/>
<path d="M104.78 45.449L103.269 41.2098H94.7173L93.2062 45.449H89.2713L97.6868 21.8813H100.31L108.726 45.449H104.78ZM101.947 37.4952L98.988 29.2161L96.0604 37.4952H101.947Z" fill="white"/>
<path d="M119.901 21.8706C122.388 21.8706 124.413 22.5107 125.861 23.8223C127.341 25.134 128.117 27.0542 128.117 29.4152C128.117 31.7342 127.341 33.6545 125.861 35.0081C124.749 35.9525 123.374 36.5611 121.653 36.8234L128.117 45.4383H123.5L117.456 37.39C117.236 37.0962 116.889 36.9283 116.522 36.9283H115.357V45.4488H111.653V21.8706H119.901ZM115.357 33.2242H119.901C121.454 33.2242 122.661 32.8885 123.406 32.2169C124.077 31.6083 124.413 30.6639 124.413 29.4257C124.413 28.1455 124.077 27.2011 123.406 26.5925C122.661 25.921 121.454 25.5852 119.901 25.5852H115.357V33.2242Z" fill="white"/>
<path d="M139.313 45.449H135.609V36.9286L129.922 25.5854L132.209 21.8813L137.467 32.3535L142.682 21.8813H146.826L139.313 36.9286V45.449Z" fill="white"/>
<path d="M70.3312 5.70117L64.0877 16.4672L75.7876 13.0674L78.0856 9.10096L70.3312 5.70117Z" fill="#584CA0"/>
<path d="M81.4014 3.39258L78.0856 9.10087L82.5872 11.0841L75.7876 13.0673L73.8149 16.4671L87.8233 12.3957L90.6774 7.46393L81.4014 3.39258Z" fill="#00B0AD"/>
<path d="M78.0855 9.10059L75.7875 13.067L82.5871 11.0838L78.0855 9.10059Z" fill="#262262"/>
<path d="M112.535 8.58644L94.5913 0.706055L90.6774 7.46367L96.2912 9.92956L87.8232 12.3955L85.4518 16.4668L112.535 8.58644Z" fill="#CCDB2A"/>
<path d="M90.6774 7.46338L87.8232 12.3952L96.2912 9.92928L90.6774 7.46338Z" fill="#7EC352"/>
<path d="M165.315 22.4692H164.235V21.9551H167.036V22.4692H165.966V25.0296H165.315V22.4692ZM167.309 21.9551H168.348L168.967 24.2006L169.639 21.9551H170.646V25.0296H170.016V22.3853L169.219 25.0296H168.694L167.907 22.3853V25.0296H167.32V21.9551H167.309Z" fill="white"/>
</svg>
