<svg width="157" height="50" viewBox="0 0 157 50" fill="none" xmlns="http://www.w3.org/2000/svg">
<path d="M35.4332 35.181C42.1553 32.3529 46.8266 25.7919 46.8266 18.2127C46.8266 8.03168 38.5094 0 28.2554 0H0L13.7859 13.5747H28.3694C30.9898 13.5747 33.1546 15.724 33.1546 18.3258C33.1546 20.9276 30.9898 23.0769 28.3694 23.0769H23.2424L35.4332 35.181Z" fill="white"/>
<path opacity="0.8" d="M3.87305 23.0771H23.3556L50.5857 50.0002H30.9892C30.9892 50.0002 4.21485 23.4165 3.87305 23.0771Z" fill="white"/>
<path d="M70.1824 30.8824L67.448 26.81C67.1062 26.81 66.7644 26.81 66.5365 26.81H63.1185V30.8824H61.8652V18.439H66.5365C68.1316 18.439 69.2709 18.7783 70.1824 19.5702C71.0938 20.2489 71.4356 21.267 71.4356 22.6245C71.4356 23.6426 71.2078 24.5476 70.6381 25.2263C70.0684 25.905 69.3848 26.3575 68.4734 26.6969L71.4356 30.9955L70.1824 30.8824ZM66.6504 25.7919C67.7898 25.7919 68.8152 25.5657 69.3848 25.0001C70.0684 24.4344 70.2963 23.6426 70.2963 22.6245C70.2963 21.6064 69.9545 20.9277 69.3848 20.362C68.7012 19.7964 67.7898 19.5702 66.6504 19.5702H63.2324V25.7919H66.6504Z" fill="white"/>
<path d="M82.1445 18.439H90.5756V19.5702H83.3978V23.982H89.7781V25.1132H83.3978V29.7512H90.8035V30.8824H82.1445V18.439Z" fill="white"/>
<path d="M110.287 30.8824L108.806 27.6019H101.856L100.375 30.8824H99.0078L104.704 18.439H105.958L111.654 30.8824H110.287ZM102.312 26.4706H108.35L105.388 19.7964L102.312 26.4706Z" fill="white"/>
<path d="M127.947 19.7964C127.263 19.5702 126.579 19.344 125.896 19.344C124.984 19.344 124.073 19.5702 123.275 20.0227C122.478 20.4752 121.794 21.1539 121.339 21.9458C120.883 22.7376 120.655 23.6426 120.655 24.5476C120.655 25.4526 120.883 26.3575 121.339 27.1494C121.794 27.9412 122.478 28.62 123.275 29.0725C124.073 29.5249 124.984 29.7512 125.896 29.7512C126.579 29.7512 127.263 29.6381 127.947 29.2987C128.63 28.9593 129.2 28.62 129.656 28.1675L130.453 28.9593C129.77 29.5249 129.086 29.9774 128.288 30.3168C127.491 30.6562 126.693 30.7693 125.782 30.7693C124.643 30.7693 123.503 30.543 122.478 29.8643C121.452 29.2987 120.655 28.5068 120.085 27.6019C119.516 26.5838 119.174 25.5657 119.174 24.4345C119.174 23.3032 119.516 22.172 120.085 21.267C120.655 20.2489 121.452 19.5702 122.478 19.0046C123.503 18.439 124.529 18.0996 125.782 18.0996C126.579 18.0996 127.491 18.2127 128.288 18.5521C129.086 18.8915 129.77 19.344 130.339 19.9096L129.542 20.8145C129.2 20.4752 128.63 20.1358 127.947 19.7964Z" fill="white"/>
<path d="M140.365 18.439H141.619V24.0951H149.48V18.439H150.733V30.8824H149.48V25.2263H141.619V30.8824H140.365V18.439Z" fill="white"/>
</svg>
