<svg width="87" height="92" viewBox="0 0 87 92" fill="none" xmlns="http://www.w3.org/2000/svg">
<path d="M65.0945 25.2219L85.2644 4V89.5028H4L17.4265 75.3761" stroke="#00B0AD" stroke-width="3" stroke-miterlimit="10"/>
<path d="M25.7772 25.7988C22.0416 25.7988 19 28.8375 19 32.6025V60.7807C19 64.5309 22.0268 67.5844 25.7772 67.5844C29.5275 67.5844 32.5543 64.5457 32.5543 60.7807V32.6025C32.5543 28.8523 29.5275 25.7988 25.7772 25.7988Z" stroke="#584CA0" stroke-width="3" stroke-miterlimit="10"/>
<path d="M22.7949 47.7956C22.7949 47.7956 28.9962 48.4774 31.9345 47.1582" stroke="#584CA0" stroke-width="3" stroke-miterlimit="10"/>
<path d="M46.5076 25.7988C42.7573 25.7988 39.7305 28.8375 39.7305 32.6025V60.7807C39.7305 64.5309 42.7573 67.5844 46.5076 67.5844C50.2579 67.5844 53.2847 64.5457 53.2847 60.7807V32.6025C53.2847 28.8523 50.2579 25.7988 46.5076 25.7988Z" stroke="#584CA0" stroke-width="3" stroke-miterlimit="10"/>
<path d="M43.5254 47.7956C43.5254 47.7956 49.7267 48.4774 52.6649 47.1582" stroke="#584CA0" stroke-width="3" stroke-miterlimit="10"/>
<path d="M67.2225 25.7988C63.4721 25.7988 60.4453 28.8375 60.4453 32.6025V60.7807C60.4453 64.5309 63.4721 67.5844 67.2225 67.5844C70.9728 67.5844 73.9996 64.5457 73.9996 60.7807V32.6025C73.9996 28.8523 70.9728 25.7988 67.2225 25.7988Z" stroke="#584CA0" stroke-width="3" stroke-miterlimit="10"/>
<path d="M64.2559 47.7956C64.2559 47.7956 70.4572 48.4774 73.3954 47.1582" stroke="#584CA0" stroke-width="3" stroke-miterlimit="10"/>
</svg>
