<svg width="96" height="92" viewBox="0 0 96 92" fill="none" xmlns="http://www.w3.org/2000/svg">
<path d="M19.2081 75.3761L4.32422 89.5028H94.4095V4L83.2298 14.611" stroke="#00B0AD" stroke-width="3" stroke-miterlimit="10"/>
<g clip-path="url(#clip0_2063_72221)">
<path d="M76.6565 75.25H30.0977V33.01L41.4602 22.25H76.6565V75.25Z" stroke="#584DA0" stroke-width="3" stroke-linecap="round" stroke-linejoin="round"/>
<path d="M30.0977 33.74H41.948V22.25" stroke="#584DA0" stroke-width="3" stroke-linecap="round" stroke-linejoin="round"/>
<path d="M50.4166 53.672C50.3366 53.672 50.2646 53.648 50.2006 53.6C50.1526 53.536 50.1286 53.464 50.1286 53.384V52.616C50.1286 51.816 50.3286 51.176 50.7286 50.696C51.1446 50.2 51.7366 49.68 52.5046 49.136C53.1286 48.704 53.5926 48.32 53.8966 47.984C54.2006 47.648 54.3526 47.24 54.3526 46.76C54.3526 46.248 54.1606 45.84 53.7766 45.536C53.3926 45.216 52.8886 45.056 52.2646 45.056C51.5926 45.056 51.0486 45.224 50.6326 45.56C50.2326 45.896 50.0326 46.328 50.0326 46.856V47.24C50.0326 47.416 49.9366 47.504 49.7446 47.504L46.9366 47.384C46.8566 47.384 46.7846 47.36 46.7206 47.312C46.6726 47.248 46.6486 47.176 46.6486 47.096V46.856C46.6486 45.896 46.8886 45.048 47.3686 44.312C47.8486 43.56 48.5126 42.984 49.3606 42.584C50.2246 42.168 51.2166 41.96 52.3366 41.96C53.4246 41.96 54.3766 42.16 55.1926 42.56C56.0246 42.944 56.6646 43.488 57.1126 44.192C57.5606 44.896 57.7846 45.712 57.7846 46.64C57.7846 47.344 57.6566 47.952 57.4006 48.464C57.1606 48.96 56.8646 49.368 56.5126 49.688C56.1606 50.008 55.7126 50.36 55.1686 50.744C54.5926 51.144 54.1686 51.488 53.8966 51.776C53.6246 52.064 53.4886 52.416 53.4886 52.832V53.384C53.4886 53.464 53.4566 53.536 53.3926 53.6C53.3446 53.648 53.2806 53.672 53.2006 53.672H50.4166ZM51.7126 59.048C51.1686 59.048 50.7126 58.872 50.3446 58.52C49.9926 58.152 49.8166 57.696 49.8166 57.152C49.8166 56.608 49.9926 56.16 50.3446 55.808C50.6966 55.456 51.1526 55.28 51.7126 55.28C52.2726 55.28 52.7206 55.456 53.0566 55.808C53.4086 56.144 53.5846 56.592 53.5846 57.152C53.5846 57.696 53.4086 58.152 53.0566 58.52C52.7046 58.872 52.2566 59.048 51.7126 59.048Z" fill="#584DA0"/>
</g>
<defs>
<clipPath id="clip0_2063_72221">
<rect width="49.3303" height="55.5" fill="white" transform="translate(28.7129 21)"/>
</clipPath>
</defs>
</svg>
