<svg width="125" height="125" viewBox="0 0 125 125" fill="none" xmlns="http://www.w3.org/2000/svg">
<path d="M57.2014 59.6689L50.6527 66.2175H39.7363C39.7363 66.2175 39.7363 74.9501 46.285 74.9501H52.8336L57.2014 72.7662M57.2014 79.3178L52.8336 90.2343L70.3017 109.883L79.0342 103.335L66.1368 89.5421L70.2987 79.3178V66.2175L76.8474 68.4014V81.5017C76.8474 81.5017 85.5799 80.4784 85.5799 72.7692C85.5799 70.5853 85.5799 61.8528 85.5799 61.8528L70.2957 55.3041C68.9651 54.6895 65.379 53.1202 63.7471 53.1202C59.3793 53.1202 57.1984 55.3041 57.1984 59.6689L57.2439 78.2782L57.2014 79.3178Z" stroke="#CDDC2C" stroke-width="3" stroke-miterlimit="10"/>
<path d="M63.4313 46.406C69.3719 45.3777 73.3542 39.7283 72.3259 33.7877C71.2977 27.8471 65.6483 23.8648 59.7076 24.8931C53.767 25.9213 49.7847 31.5707 50.813 37.5114C51.8413 43.452 57.4907 47.4343 63.4313 46.406Z" stroke="#CDDC2C" stroke-width="3" stroke-miterlimit="10"/>
<path d="M63.7529 101.151L59.3852 114.251H48.4688L55.0174 92.4182" stroke="#CDDC2C" stroke-width="3" stroke-miterlimit="10"/>
<path d="M80.6068 46.4048L122.635 4.37671V122.648H4.36328L43.6448 83.3668" stroke="#00B0AD" stroke-width="3" stroke-miterlimit="10"/>
</svg>
