<svg width="125" height="125" viewBox="0 0 125 125" fill="none" xmlns="http://www.w3.org/2000/svg">
<path d="M81.5425 45.4691L122.635 4.37671V122.648H4.36328L29.7788 97.2328" stroke="#00B0AD" stroke-width="3" stroke-miterlimit="10"/>
<path fill-rule="evenodd" clip-rule="evenodd" d="M46.1586 90.1088C45.5978 90.1118 45.0578 89.8911 44.6639 89.4913C41.1882 86.0066 39.2341 81.2838 39.2341 76.3611C39.2341 71.4385 41.1882 66.7157 44.6639 63.231C45.0578 62.8342 45.5948 62.6134 46.1527 62.6134C46.7106 62.6134 47.2476 62.8342 47.6444 63.231C48.0412 63.6248 48.262 64.1618 48.262 64.7197C48.262 65.2777 48.0412 65.8147 47.6444 66.2115C44.9563 68.9055 43.4467 72.5543 43.4467 76.3611C43.4467 80.168 44.9563 83.8168 47.6444 86.5108C48.4678 87.3342 48.4678 88.6678 47.6444 89.4943C47.2506 89.8911 46.7166 90.1118 46.1586 90.1118V90.1088ZM55.5535 82.9874C56.3769 82.1639 56.3769 80.8273 55.5535 80.0039C54.5898 79.0373 54.0469 77.7246 54.0469 76.3582C54.0469 74.9917 54.5869 73.682 55.5535 72.7124C56.3769 71.889 56.3799 70.5554 55.5565 69.7319C54.7331 68.9085 53.3995 68.9055 52.576 69.729C50.8218 71.4892 49.8342 73.8729 49.8342 76.3582C49.8342 78.8434 50.8188 81.2271 52.576 82.9874C52.9698 83.3842 53.5069 83.6079 54.0648 83.6079C54.6227 83.6079 55.1597 83.3842 55.5535 82.9874ZM39.7144 95.8191C40.5378 94.9957 40.5378 93.6591 39.7144 92.8357C35.3496 88.462 32.8972 82.5369 32.8972 76.3552C32.8972 70.1735 35.3496 64.2484 39.7144 59.8776C40.5378 59.0542 40.5349 57.7206 39.7114 56.8972C38.888 56.0737 37.5514 56.0767 36.731 56.9001C31.5786 62.0645 28.6816 69.0636 28.6816 76.3582C28.6816 83.6527 31.5756 90.6518 36.731 95.8191C37.5574 96.6396 38.891 96.6396 39.7144 95.8191ZM93.0166 101.458C93.3149 101.458 93.6133 101.392 93.8848 101.267C94.3949 101.037 94.7917 100.614 94.9916 100.091C95.1885 99.5693 95.1706 98.9876 94.9409 98.4774L92.0977 92.1853C91.5428 90.9561 90.6418 89.9179 89.5021 89.1959C88.3624 88.4739 87.0378 88.101 85.6922 88.1278C81.9868 88.1935 77.4341 88.2621 75.1607 88.2144C74.5342 88.2531 73.9166 88.0383 73.4482 87.6206C73.123 87.1821 72.9887 86.6331 73.0723 86.0961C73.299 84.2136 72.6993 82.328 71.4314 80.9198C71.3359 80.7945 71.2225 80.6513 71.133 80.526L76.2228 77.3308C76.9627 76.8653 77.5027 76.1374 77.7354 75.2931C77.9681 74.4488 77.8786 73.5478 77.4818 72.7661C77.085 71.9844 76.4108 71.3788 75.5933 71.0685L68.4748 68.3685L69.2147 64.5079C69.513 62.9446 69.161 61.3276 68.2391 60.0328C67.3172 58.735 65.9031 57.8727 64.3308 57.643L61.222 57.1836L68.621 44.6203C70.3186 41.7323 70.9839 38.3521 70.5035 35.0375L69.9605 31.2903C69.8114 30.267 68.9372 29.5002 67.902 29.4883H67.8423C67.7498 29.4883 67.6603 29.4942 67.5678 29.5092C66.4162 29.6762 65.6166 30.7443 65.7807 31.8989L66.3267 35.6521C66.6698 38.0179 66.1954 40.4256 64.9842 42.4871L57.0393 55.9783C56.4485 56.9807 56.3948 58.2099 56.896 59.2601C57.4003 60.3102 58.3908 61.0382 59.5424 61.2082L63.7132 61.8228C64.1518 61.8885 64.5426 62.1271 64.7992 62.4881C65.0558 62.8491 65.1542 63.2996 65.0707 63.7322L64.2502 68.0314C64.0981 68.8309 64.2174 69.6603 64.5844 70.3853C64.9543 71.1103 65.551 71.695 66.2879 72.0471C66.3386 72.0739 66.3953 72.0978 66.449 72.1187L72.7799 74.5263L68.5374 77.1905C68.4778 77.2293 68.4181 77.2711 68.3644 77.3158C67.7498 77.7723 67.2814 78.4018 67.0219 79.1238C66.7623 79.8458 66.7205 80.6275 66.9025 81.3733C67.1501 82.1789 67.5648 82.9247 68.1227 83.5572C68.7135 84.1002 68.9969 84.8997 68.8746 85.6933C68.6598 87.4029 69.1729 89.1243 70.2917 90.434C71.5209 91.7676 73.2632 92.4986 75.0742 92.4449C77.4191 92.4896 82.0166 92.424 85.7638 92.3583C86.2889 92.3494 86.8021 92.4956 87.2436 92.776C87.6852 93.0565 88.0342 93.4622 88.249 93.9396L91.0923 100.232C91.4324 100.986 92.1872 101.473 93.0166 101.473V101.458Z" fill="#CDDC2C"/>
</svg>
