<svg width="94" height="94" viewBox="0 0 94 94" fill="none" xmlns="http://www.w3.org/2000/svg">
<path d="M73.2518 22.7482L92 4V92H4L21.919 74.0832" stroke="#00B0AD" stroke-width="2.64" stroke-miterlimit="10"/>
<path d="M61.0547 21.5996L61.0547 31.8663" stroke="#584DA0" stroke-width="2.64" stroke-linecap="round"/>
<path d="M35.3867 21.5996L35.3867 31.8663" stroke="#584DA0" stroke-width="2.64" stroke-linecap="round"/>
<path d="M25.1211 32.8188C25.1211 31.1595 25.1211 30.3298 25.6366 29.8143C26.1521 29.2988 26.9817 29.2988 28.6411 29.2988H67.8011C69.4604 29.2988 70.2901 29.2988 70.8056 29.8143C71.3211 30.3298 71.3211 31.1595 71.3211 32.8188V42.1322H25.1211V32.8188Z" stroke="#584DA0" stroke-width="2.64"/>
<rect x="25.1211" y="29.2988" width="46.2" height="38.5" rx="1.76" stroke="#584DA0" stroke-width="2.64"/>
<path d="M32.8203 52.4004H43.087" stroke="#584DA0" stroke-width="2.64" stroke-linecap="round"/>
<path d="M53.3555 52.4004H63.6221" stroke="#584DA0" stroke-width="2.64" stroke-linecap="round"/>
<path d="M32.8203 60.0996H43.087" stroke="#584DA0" stroke-width="2.64" stroke-linecap="round"/>
<path d="M53.3555 60.0996H63.6221" stroke="#584DA0" stroke-width="2.64" stroke-linecap="round"/>
</svg>
