<svg width="124" height="124" viewBox="0 0 124 124" fill="none" xmlns="http://www.w3.org/2000/svg">
<path d="M107.775 18.3596L122.135 4V122.272H3.86328L17.1358 109.002" stroke="#00B0AD" stroke-width="3" stroke-miterlimit="10"/>
<path d="M98.7795 48.3549L91.5879 41.1661" stroke="#CDDC2C" stroke-width="3" stroke-miterlimit="10"/>
<path d="M109.567 66.3324H102.375V104.088H105.972" stroke="#CDDC2C" stroke-width="3" stroke-miterlimit="10"/>
<path d="M95.1843 96.8961C87.3286 104.907 77.3763 104.158 71.8123 104.088H37.6543C37.6543 95.099 44.8459 91.5046 53.8347 91.5046H64.6207C70.0151 91.5046 71.8123 89.7074 71.8123 86.1102C71.8123 83.2307 68.3592 80.3569 66.9802 79.3226" stroke="#CDDC2C" stroke-width="3" stroke-miterlimit="10"/>
<path d="M67.3892 58.1148L53.8339 51.9518L34.0591 62.7378C34.0591 62.7378 25.6383 83.5666 25.3698 84.3352C25.1749 84.8891 25.0703 85.4881 25.0703 86.107C25.0703 89.0853 27.4835 91.5014 30.4647 91.5014C32.8016 91.5014 34.791 90.015 35.5398 87.9381C35.7461 87.3673 43.0479 73.5238 43.0479 73.5238L53.362 71.8057" stroke="#CDDC2C" stroke-width="3" stroke-miterlimit="10"/>
<path d="M38.5522 104.088L26.8789 108.569L32.2733 92.3889L95.4916 30.688C96.7915 29.3853 98.5915 28.5828 100.575 28.5828C104.545 28.5828 107.767 31.8014 107.767 35.7744C107.767 37.761 106.961 39.5581 105.662 40.858L54.7326 91.5044" stroke="#CDDC2C" stroke-width="3" stroke-miterlimit="10"/>
<path d="M81.7461 64.6399L96.9799 69.9298" stroke="#CDDC2C" stroke-width="3" stroke-miterlimit="10"/>
</svg>
