<svg width="125" height="125" viewBox="0 0 125 125" fill="none" xmlns="http://www.w3.org/2000/svg">
<path d="M93.8399 33.1717L122.635 4.37671V122.648H4.36328L43.6448 83.3668" stroke="#00B0AD" stroke-width="3" stroke-miterlimit="10"/>
<path d="M71.6307 50.2069C79.3874 50.2069 85.6754 44.2498 85.6754 36.9014C85.6754 29.5529 79.3874 23.5958 71.6307 23.5958C63.874 23.5958 57.5859 29.5529 57.5859 36.9014C57.5859 44.2498 63.874 50.2069 71.6307 50.2069Z" stroke="#CDDC2C" stroke-width="3" stroke-miterlimit="10"/>
<path d="M79.3921 113.778L81.3325 88.381L87.1537 84.4743V67.8675C87.1537 63.3245 82.5521 59.0774 71.6306 59.0774C60.709 59.0774 56.1074 63.3245 56.1074 67.8675V84.4743L61.9286 88.381L63.869 113.778" stroke="#CDDC2C" stroke-width="3" stroke-miterlimit="10"/>
</svg>
