<svg width="157" height="50" viewBox="0 0 157 50" fill="none" xmlns="http://www.w3.org/2000/svg">
<path d="M35.4332 35.181C42.1553 32.3529 46.8266 25.7919 46.8266 18.2127C46.8266 8.03168 38.5094 0 28.2554 0H0L13.7859 13.5747H28.3694C30.9898 13.5747 33.1546 15.724 33.1546 18.3258C33.1546 20.9276 30.9898 23.0769 28.3694 23.0769H23.2424L35.4332 35.181Z" fill="white"/>
<path opacity="0.8" d="M3.87354 23.0771H23.3561L50.5862 50.0002H30.9896C30.9896 50.0002 4.21533 23.4165 3.87354 23.0771Z" fill="white"/>
<path d="M70.1828 30.8829L67.4485 26.8105C67.1067 26.8105 66.7649 26.8105 66.537 26.8105H63.119V30.8829H61.8657V18.4395H66.537C68.1321 18.4395 69.2714 18.7788 70.1828 19.5707C71.0943 20.2494 71.4361 21.2675 71.4361 22.625C71.4361 23.6431 71.2082 24.5481 70.6386 25.2268C70.0689 25.9055 69.3853 26.358 68.4738 26.6974L71.4361 30.996L70.1828 30.8829ZM66.6509 25.7924C67.7903 25.7924 68.8157 25.5662 69.3853 25.0005C70.0689 24.4349 70.2968 23.6431 70.2968 22.625C70.2968 21.6069 69.955 20.9281 69.3853 20.3625C68.7017 19.7969 67.7903 19.5707 66.6509 19.5707H63.2329V25.7924H66.6509Z" fill="white"/>
<path d="M82.146 18.4395H90.5771V19.5707H83.3993V23.9824H89.7795V25.1137H83.3993V29.7517H90.8049V30.8829H82.146V18.4395Z" fill="white"/>
<path d="M110.287 30.8829L108.806 27.6023H101.856L100.375 30.8829H99.0078L104.704 18.4395H105.958L111.654 30.8829H110.287ZM102.312 26.4711H108.35L105.388 19.7969L102.312 26.4711Z" fill="white"/>
<path d="M127.947 19.7964C127.264 19.5702 126.58 19.344 125.896 19.344C124.985 19.344 124.073 19.5702 123.276 20.0227C122.478 20.4752 121.795 21.1539 121.339 21.9458C120.883 22.7376 120.655 23.6426 120.655 24.5476C120.655 25.4526 120.883 26.3575 121.339 27.1494C121.795 27.9412 122.478 28.62 123.276 29.0725C124.073 29.5249 124.985 29.7512 125.896 29.7512C126.58 29.7512 127.264 29.6381 127.947 29.2987C128.631 28.9593 129.2 28.62 129.656 28.1675L130.454 28.9593C129.77 29.5249 129.087 29.9774 128.289 30.3168C127.491 30.6562 126.694 30.7693 125.782 30.7693C124.643 30.7693 123.504 30.543 122.478 29.8643C121.453 29.2987 120.655 28.5068 120.086 27.6019C119.516 26.5838 119.174 25.5657 119.174 24.4345C119.174 23.3032 119.516 22.172 120.086 21.267C120.655 20.2489 121.453 19.5702 122.478 19.0046C123.504 18.439 124.529 18.0996 125.782 18.0996C126.58 18.0996 127.491 18.2127 128.289 18.5521C129.087 18.8915 129.77 19.344 130.34 19.9096L129.542 20.8145C129.2 20.4752 128.631 20.1358 127.947 19.7964Z" fill="white"/>
<path d="M140.366 18.4395H141.619V24.0956H149.48V18.4395H150.734V30.8829H149.48V25.2268H141.619V30.8829H140.366V18.4395Z" fill="white"/>
</svg>
