<svg xmlns="http://www.w3.org/2000/svg" xmlns:xlink="http://www.w3.org/1999/xlink" width="171" height="71" viewBox="0 0 171 71">
  <defs>
    <clipPath id="clip-skyclarys_header_logo">
      <rect width="171" height="71"/>
    </clipPath>
  </defs>
  <g id="skyclarys_header_logo" clip-path="url(#clip-skyclarys_header_logo)">
    <g id="Group_18" data-name="Group 18" transform="translate(-0.239 -0.206)">
      <g id="Group_11" data-name="Group 11">
        <g id="Group_10" data-name="Group 10">
          <path id="Path_43" data-name="Path 43" d="M3.315,48.758a41.754,41.754,0,0,0-1.573,10.19A37.786,37.786,0,0,0,3.315,69.3H2.165a33.136,33.136,0,0,1-1.926-10,32.423,32.423,0,0,1,2.02-10.543Z" fill="#fff"/>
          <path id="Path_44" data-name="Path 44" d="M5.262,61.555v-2.56c0-3.076,1.315-4.883,4.086-4.883s4.086,1.807,4.086,4.883v2.56c0,3.076-1.315,4.883-4.086,4.883S5.262,64.631,5.262,61.555Zm1.409-1.291c0,3.1.353,5.048,2.677,5.048s2.677-1.95,2.677-5.048c0-3.076-.352-5.026-2.677-5.026S6.671,57.188,6.671,60.264Z" fill="#fff"/>
          <path id="Path_45" data-name="Path 45" d="M16.788,66.2H15.379V54.323h1.269V55.8h.046a3.194,3.194,0,0,1,2.818-1.69,2.765,2.765,0,0,1,2.7,1.855,3.137,3.137,0,0,1,2.912-1.855c1.972,0,3.006,1.361,3.076,3.263V66.2H26.791V57.728c-.023-1.175-.446-2.49-1.832-2.49-1.784,0-2.465,1.785-2.465,3.334V66.2H21.085V57.728c-.024-1.175-.446-2.49-1.831-2.49-1.785,0-2.466,1.785-2.466,3.334Z" fill="#fff"/>
          <path id="Path_46" data-name="Path 46" d="M36.6,64.748h-.047a3.8,3.8,0,0,1-3.358,1.69c-2.113,0-3.263-1.432-3.263-3.5,0-4.157,4.18-3.734,6.575-3.922v-.987c0-1.737-.517-2.794-2.4-2.794-1.292,0-2.325.635-2.325,2.043h-1.5c.117-2.277,1.878-3.169,3.945-3.169,1.2,0,3.686.117,3.686,3.146v5.964a25.3,25.3,0,0,0,.141,2.982H36.6Zm-.093-4.6c-2.02.07-5.072-.164-5.072,2.724,0,1.338.681,2.442,2.137,2.442a3.045,3.045,0,0,0,2.935-3.006Z" fill="#fff"/>
          <path id="Path_47" data-name="Path 47" d="M43.477,64.42h.047l2.889-10.074h1.361L44.252,66.2h-1.62L39.11,54.346h1.526Z" fill="#fff"/>
          <path id="Path_48" data-name="Path 48" d="M49.955,60.568v.917c0,1.643.446,3.827,2.677,3.827a2.428,2.428,0,0,0,2.606-2.724h1.479c-.164,2.865-1.714,3.85-4.085,3.85-2.043,0-4.087-.821-4.087-4.414V59.113c0-3.428,1.434-5,4.087-5,4.085,0,4.085,2.935,4.085,6.456Zm5.354-1.126c0-2.631-.423-4.2-2.677-4.2s-2.677,1.573-2.677,4.2Z" fill="#fff"/>
          <path id="Path_49" data-name="Path 49" d="M59.155,66.2V49.251h1.409V66.2Z" fill="#fff"/>
          <path id="Path_50" data-name="Path 50" d="M63.005,61.555v-2.56c0-3.076,1.314-4.883,4.085-4.883s4.086,1.807,4.086,4.883v2.56c0,3.076-1.315,4.883-4.086,4.883S63.005,64.631,63.005,61.555Zm1.408-1.291c0,3.1.353,5.048,2.677,5.048s2.676-1.95,2.676-5.048c0-3.076-.351-5.026-2.676-5.026S64.413,57.188,64.413,60.264Z" fill="#fff"/>
          <path id="Path_51" data-name="Path 51" d="M75.445,59.887,72.51,54.346H74.2l2.16,4.462,2.348-4.462h1.55l-3.1,5.471L80.587,66.2H78.873l-2.606-5.142L73.543,66.2H71.97Z" fill="#fff"/>
          <path id="Path_52" data-name="Path 52" d="M81.382,61.555v-2.56c0-3.076,1.315-4.883,4.087-4.883s4.085,1.807,4.085,4.883v2.56c0,3.076-1.315,4.883-4.085,4.883S81.382,64.631,81.382,61.555Zm1.41-1.291c0,3.1.352,5.048,2.677,5.048s2.677-1.95,2.677-5.048c0-3.076-.353-5.026-2.677-5.026S82.792,57.188,82.792,60.264Z" fill="#fff"/>
          <path id="Path_53" data-name="Path 53" d="M91.993,66.2V49.251H93.4V66.2Z" fill="#fff"/>
          <path id="Path_54" data-name="Path 54" d="M95.842,61.555v-2.56c0-3.076,1.314-4.883,4.085-4.883s4.086,1.807,4.086,4.883v2.56c0,3.076-1.315,4.883-4.086,4.883S95.842,64.631,95.842,61.555Zm1.408-1.291c0,3.1.353,5.048,2.677,5.048s2.676-1.95,2.676-5.048c0-3.076-.351-5.026-2.676-5.026S97.25,57.188,97.25,60.264Z" fill="#fff"/>
          <path id="Path_55" data-name="Path 55" d="M107.39,66.2h-1.408V54.346h1.408V55.8h.048a3.426,3.426,0,0,1,2.865-1.69c2.935,0,3.239,2.183,3.239,3.733V66.2h-1.408V57.915c0-1.385-.54-2.677-2.184-2.677-1.267,0-2.56.87-2.56,3.523Z" fill="#fff"/>
          <path id="Path_56" data-name="Path 56" d="M116.92,60.568v.917c0,1.643.446,3.827,2.677,3.827a2.428,2.428,0,0,0,2.606-2.724h1.479c-.165,2.865-1.714,3.85-4.085,3.85-2.043,0-4.087-.821-4.087-4.414V59.113c0-3.428,1.434-5,4.087-5,4.085,0,4.085,2.935,4.085,6.456Zm5.354-1.126c0-2.631-.423-4.2-2.677-4.2s-2.677,1.573-2.677,4.2Z" fill="#fff"/>
          <path id="Path_57" data-name="Path 57" d="M126.685,48.758A32.422,32.422,0,0,1,128.7,59.3a33.165,33.165,0,0,1-1.925,10h-1.151A37.787,37.787,0,0,0,127.2,58.948a41.706,41.706,0,0,0-1.573-10.19Z" fill="#fff"/>
        </g>
      </g>
      <g id="Group_13" data-name="Group 13">
        <g id="Group_12" data-name="Group 12">
          <path id="Path_58" data-name="Path 58" d="M152.636,38.464a.07.07,0,0,1,.082.054A3.8,3.8,0,0,0,154,40.745a5.084,5.084,0,0,0,2.81.92l.374.023a5.8,5.8,0,0,0,3.659-.7,2.6,2.6,0,0,0,1.087-2.186,2.573,2.573,0,0,0-.817-2.267,5.8,5.8,0,0,0-3.547-1.136,9.6,9.6,0,0,1-5.846-2.06A6.3,6.3,0,0,1,149.652,28a6.28,6.28,0,0,1,2.693-5.022,9.6,9.6,0,0,1,6.052-1.339l.339.02a8.323,8.323,0,0,1,4.942,1.768,6.734,6.734,0,0,1,1.889,2.31c.019.038-2.887,2.863-2.887,2.863a.068.068,0,0,1-.082-.053,3.791,3.791,0,0,0-1.279-2.227,4.816,4.816,0,0,0-2.81-.921l-.339-.021a5.85,5.85,0,0,0-3.693.7,2.572,2.572,0,0,0-1.086,2.152,2.6,2.6,0,0,0,.816,2.3,5.85,5.85,0,0,0,3.582,1.138,9.494,9.494,0,0,1,5.81,2.058,6.28,6.28,0,0,1,2.067,5.311,6.3,6.3,0,0,1-2.7,5.056,9.489,9.489,0,0,1-6.017,1.341l-.374-.022a8.4,8.4,0,0,1-4.943-1.767,7,7,0,0,1-1.877-2.308Z" fill="#fff"/>
          <path id="Path_59" data-name="Path 59" d="M4.065,38.464a.07.07,0,0,1,.082.054,3.8,3.8,0,0,0,1.278,2.227,5.084,5.084,0,0,0,2.81.92l.374.023a5.8,5.8,0,0,0,3.659-.7A2.6,2.6,0,0,0,13.356,38.8a2.577,2.577,0,0,0-.818-2.267A5.8,5.8,0,0,0,8.991,35.4a9.6,9.6,0,0,1-5.846-2.06A6.3,6.3,0,0,1,1.081,28a6.28,6.28,0,0,1,2.693-5.022,9.6,9.6,0,0,1,6.052-1.339l.339.02a8.323,8.323,0,0,1,4.942,1.768A6.734,6.734,0,0,1,17,25.732c.019.038-2.887,2.863-2.887,2.863a.068.068,0,0,1-.082-.053,3.791,3.791,0,0,0-1.279-2.227,4.816,4.816,0,0,0-2.81-.921L9.6,25.373a5.85,5.85,0,0,0-3.693.7A2.572,2.572,0,0,0,4.82,28.222a2.6,2.6,0,0,0,.816,2.3,5.85,5.85,0,0,0,3.582,1.138,9.494,9.494,0,0,1,5.81,2.058,6.28,6.28,0,0,1,2.067,5.311A6.3,6.3,0,0,1,14.4,44.086a9.489,9.489,0,0,1-6.017,1.341L8.009,45.4a8.4,8.4,0,0,1-4.943-1.767A7,7,0,0,1,1.189,41.33Z" fill="#fff"/>
          <path id="Path_60" data-name="Path 60" d="M38.355,45.448H34.031L28,35.028,24.224,39.9v5.551H20.478V25.357l3.746-3.746V33.768l9.4-12.157h4.732l-7.9,10.216Z" fill="#fff"/>
          <path id="Path_61" data-name="Path 61" d="M49.064,45.448H45.318V36.832L39.367,24.957l2.511-3.346L47.19,32.2,58.906,10.9l6.145-3.559L49.064,36.832Z" fill="#fff"/>
          <path id="Path_62" data-name="Path 62" d="M70.929,23.075a7.31,7.31,0,0,1,2.861,4.189L70.213,28.32a4.183,4.183,0,0,0-1.43-2.214,4.889,4.889,0,0,0-2.86-.749,4.381,4.381,0,0,0-3.4,1.226,6.1,6.1,0,0,0-1.192,4.086V36.39a6.1,6.1,0,0,0,1.192,4.087,4.384,4.384,0,0,0,3.4,1.225,5.154,5.154,0,0,0,2.86-.749,4.18,4.18,0,0,0,1.43-2.213l3.577,1.055a7.31,7.31,0,0,1-2.861,4.189,8.3,8.3,0,0,1-5.006,1.464,8.026,8.026,0,0,1-6.2-2.486A9.43,9.43,0,0,1,57.58,36.39V30.669A9.432,9.432,0,0,1,59.725,24.1a8.026,8.026,0,0,1,6.2-2.486A8.288,8.288,0,0,1,70.929,23.075Z" fill="#fff"/>
          <path id="Path_63" data-name="Path 63" d="M88.573,41.7l-1.514,3.746H77.536V21.611h3.746V41.7Z" fill="#fff"/>
          <path id="Path_64" data-name="Path 64" d="M105.875,45.448l-1.532-4.291H95.694l-1.532,4.291H90.177L98.69,21.611h2.656l8.514,23.837Zm-2.86-8.036-3-8.378-2.962,8.378Z" fill="#fff"/>
          <path id="Path_65" data-name="Path 65" d="M121.169,21.611a8.688,8.688,0,0,1,6.026,1.975,7.258,7.258,0,0,1,2.283,5.653,7.359,7.359,0,0,1-2.283,5.653,8.392,8.392,0,0,1-4.256,1.838l6.539,8.718h-4.666L118.7,37.3a1.181,1.181,0,0,0-.944-.472h-1.181v8.616h-3.746V21.611Zm-4.6,11.476h4.6a5.234,5.234,0,0,0,3.541-1.022,3.631,3.631,0,0,0,1.021-2.826,3.666,3.666,0,0,0-1.021-2.861,5.24,5.24,0,0,0-3.541-1.021h-4.6Z" fill="#fff"/>
          <path id="Path_66" data-name="Path 66" d="M140.8,45.448h-3.746V36.832l-5.751-11.475,2.312-3.746L138.932,32.2l5.278-10.591H148.4L140.8,36.832Z" fill="#fff"/>
        </g>
      </g>
      <path id="Path_67" data-name="Path 67" d="M71.035,5.252l-6.314,10.89L76.558,12.7l2.32-4Z" fill="#fff" opacity="0.5"/>
      <path id="Path_68" data-name="Path 68" d="M82.23,2.916,78.878,8.7l4.557,2-6.877,2-2,3.444,14.16-4.12,2.891-4.986Z" fill="#fff" opacity="0.65"/>
      <path id="Path_69" data-name="Path 69" d="M78.878,8.7l-2.32,4,6.877-2Z" fill="#fff" opacity="0.2"/>
      <path id="Path_70" data-name="Path 70" d="M113.719,8.174,95.572.206l-3.96,6.83,5.678,2.493-8.569,2.493-2.389,4.12Z" fill="#fff" opacity="0.8"/>
      <path id="Path_71" data-name="Path 71" d="M91.613,7.036l-2.891,4.986,8.569-2.493Z" fill="#fff" opacity="0.57"/>
      <g id="Group_14" data-name="Group 14">
        <path id="Path_72" data-name="Path 72" d="M170.637,23.282a2.145,2.145,0,1,1-2.138-2.088A2.1,2.1,0,0,1,170.637,23.282Zm-3.754,0a1.617,1.617,0,0,0,1.629,1.667A1.6,1.6,0,0,0,170.1,23.3a1.611,1.611,0,1,0-3.22-.013Zm1.285,1.094h-.484V22.289a4.162,4.162,0,0,1,.8-.064,1.3,1.3,0,0,1,.726.153.58.58,0,0,1,.2.458.537.537,0,0,1-.433.484v.025a.615.615,0,0,1,.381.509,1.6,1.6,0,0,0,.153.522h-.522a1.817,1.817,0,0,1-.165-.509c-.038-.229-.166-.331-.433-.331h-.229Zm.013-1.184h.229c.267,0,.484-.089.484-.305,0-.191-.141-.318-.446-.318a1.149,1.149,0,0,0-.267.025Z" fill="#fff"/>
      </g>
      <g id="Group_15" data-name="Group 15">
        <path id="Path_73" data-name="Path 73" d="M138.4,48.649V49.9h-3.644v3.174l.031.031a2,2,0,0,1,1.728-.817c1.555,0,2.277,1.163,2.277,3.675,0,1.743-.219,3.818-2.952,3.818-2.262,0-2.687-1.241-2.687-2.7H134.6c0,.849.33,1.65,1.288,1.65,1.366,0,1.461-1.335,1.461-2.4,0-1.587-.047-2.827-1.4-2.827a1.343,1.343,0,0,0-1.336,1.271h-1.3V48.649Z" fill="#fff"/>
        <path id="Path_74" data-name="Path 74" d="M146.359,54.146c0,2.844.015,5.64-2.938,5.64s-2.937-2.8-2.937-5.64c0-2.937-.047-5.67,2.937-5.67S146.359,51.209,146.359,54.146Zm-4.43.283c0,1.838-.11,4.147,1.492,4.147s1.492-2.309,1.492-4.147c0-2.937-.015-4.743-1.492-4.743S141.929,51.492,141.929,54.429Z" fill="#fff"/>
        <path id="Path_75" data-name="Path 75" d="M154.2,59.55v-4.7c0-.685-.188-1.317-1.075-1.317a1.277,1.277,0,0,0-.955.457,2.024,2.024,0,0,0-.255.994v4.57h-1.1V54.173c0-.47-.027-.941-.067-1.41h1.169v.846h.027a1.641,1.641,0,0,1,1.694-.981,1.658,1.658,0,0,1,1.585.874,1.628,1.628,0,0,1,1.614-.874,1.606,1.606,0,0,1,1.854,1.761V59.55h-1.1v-4.7c0-.685-.188-1.317-1.075-1.317a1,1,0,0,0-.834.255,1.779,1.779,0,0,0-.376,1.2v4.57Z" fill="#fff"/>
        <path id="Path_76" data-name="Path 76" d="M163.882,52.763h1.1v7.473c0,1.518-1.008,1.881-2.5,1.881-1.129,0-2.151-.565-2.056-1.815h1.236a.945.945,0,0,0,1.035.982,1.085,1.085,0,0,0,1.183-1.17V58.7h-.041a1.7,1.7,0,0,1-1.491.847c-1.842,0-2.205-1.586-2.205-3.6,0-3.118,1.573-3.32,2.124-3.32a1.636,1.636,0,0,1,1.586.968h.027Zm-1.29.779c-1.25,0-1.291,1.506-1.291,2.406,0,2.178.5,2.688,1.317,2.688,1.331,0,1.291-1.572,1.291-2.513C163.909,55.114,163.976,53.542,162.592,53.542Z" fill="#fff"/>
      </g>
      <g id="Group_17" data-name="Group 17">
        <g id="Group_16" data-name="Group 16">
          <path id="Path_77" data-name="Path 77" d="M136.118,65.561c.021-.846-.4-1.069-.713-1.069-.642,0-1.08.306-1.08,1.712,0,1.67.214,2.271,1.08,2.271.194,0,.774-.205.743-1.131h.877a1.62,1.62,0,0,1-1.62,1.813c-1.09,0-1.955-.325-1.955-2.6,0-1.508.173-2.75,1.955-2.75a1.472,1.472,0,0,1,1.579,1.751Z" fill="#fff"/>
          <path id="Path_78" data-name="Path 78" d="M140.51,68.312h-.02a1.261,1.261,0,0,1-1.294.845c-1.09,0-1.4-.7-1.4-1.691,0-1.559,1.527-1.629,2.7-1.6.02-.683.031-1.426-.866-1.426a.761.761,0,0,0-.8.916h-.906c.04-1.15.652-1.548,1.742-1.548,1.324,0,1.67.682,1.67,1.548v2.475a8.169,8.169,0,0,0,.1,1.223h-.917Zm-1.884-.784c0,.5.244.947.8.947.51,0,1.141-.317,1.06-1.977C139.7,66.508,138.626,66.438,138.626,67.528Z" fill="#fff"/>
          <path id="Path_79" data-name="Path 79" d="M143.185,64.523h.02a1.272,1.272,0,0,1,1.181-.713c.825,0,1.661.325,1.661,2.586,0,1.283-.041,2.761-1.7,2.761a1.3,1.3,0,0,1-1.13-.622h-.03V71h-.836V63.911h.836Zm1.986,1.873c0-.773,0-1.9-1.049-1.9-1.029,0-.937,1.426-.937,2.21,0,.683.04,1.773.967,1.773C145.049,68.475,145.171,67.772,145.171,66.4Z" fill="#fff"/>
          <path id="Path_80" data-name="Path 80" d="M148.376,69.157c-1.11,0-1.8-.489-1.772-1.67h.947c0,.295.01.988.856.988a.778.778,0,0,0,.886-.785c0-.916-2.567-.937-2.567-2.475,0-.539.326-1.4,1.772-1.4.917,0,1.7.437,1.63,1.457H149.2a.723.723,0,0,0-.805-.825.7.7,0,0,0-.794.692c0,.906,2.567.885,2.567,2.454C150.169,68.719,149.4,69.157,148.376,69.157Z" fill="#fff"/>
          <path id="Path_81" data-name="Path 81" d="M153.619,63.911h.835v4.075c0,.357.021.713.052,1.07h-.887v-.622h-.031a1.476,1.476,0,0,1-1.3.723,1.211,1.211,0,0,1-1.385-1.324V63.911h.835v3.565c0,.622.285,1.039.876,1.039a1.057,1.057,0,0,0,1.008-1.192Z" fill="#fff"/>
          <path id="Path_82" data-name="Path 82" d="M156.265,69.056h-.835V61.7h.835Z" fill="#fff"/>
          <path id="Path_83" data-name="Path 83" d="M158.016,66.753c0,1.436.387,1.722,1.039,1.722a.924.924,0,0,0,.9-.978h.916a1.565,1.565,0,0,1-1.792,1.66c-1.09,0-1.956-.325-1.956-2.6,0-1.508.173-2.75,1.956-2.75,1.467,0,1.833.8,1.833,2.506v.437Zm2.006-.631c0-1.5-.417-1.68-1.028-1.68-.53,0-.968.254-.978,1.68Z" fill="#fff"/>
          <path id="Path_84" data-name="Path 84" d="M163.3,69.157c-1.11,0-1.8-.489-1.772-1.67h.947c0,.295.01.988.855.988a.779.779,0,0,0,.887-.785c0-.916-2.567-.937-2.567-2.475,0-.539.326-1.4,1.772-1.4.917,0,1.7.437,1.63,1.457h-.927a.723.723,0,0,0-.8-.825.7.7,0,0,0-.794.692c0,.906,2.567.885,2.567,2.454C165.092,68.719,164.318,69.157,163.3,69.157Z" fill="#fff"/>
        </g>
      </g>
    </g>
  </g>
</svg>
