<svg width="106" height="105" viewBox="0 0 106 105" fill="none" xmlns="http://www.w3.org/2000/svg">
<path d="M79.9616 58.4738L77.7264 49.2337C77.7264 49.2337 66.1074 45.9014 62.2157 44.8244C58.3239 43.7475 55.2156 42.6249 51.7079 46.1426C48.2002 49.6604 42.2628 55.8018 42.2628 55.8018L29.7605 49.9474C27.0056 53.4702 29.3432 57.9251 32.0213 59.2078L44.5108 65.0546L52.1202 57.7448L51.5262 68.4504L40.6037 72.0926L36.0104 90.4839L45.8678 92.4243L48.4768 79.3871L57.5225 75.0642L60.3133 88.4951L74.508 99.4115L80.9345 91.1899L68.189 83.2681L65.6491 54.989L71.0361 55.3726L74.7103 67.5995C74.7103 67.5995 81.8485 65.0292 79.9641 58.4788L79.9616 58.4738Z" stroke="#584CA0" stroke-width="3" stroke-miterlimit="10"/>
<path d="M56.1373 38.6464C61.1006 38.6464 65.1241 34.655 65.1241 29.7314C65.1241 24.8078 61.1006 20.8164 56.1373 20.8164C51.174 20.8164 47.1504 24.8078 47.1504 29.7314C47.1504 34.655 51.174 38.6464 56.1373 38.6464Z" stroke="#584CA0" stroke-width="3"/>
<path d="M75.4863 41.7637L82.5606 45.1646L85.7764 52.1822" stroke="#584CA0" stroke-width="3" stroke-miterlimit="10"/>
<path d="M54.4814 86.8418L55.1241 91.0936L57.9098 94.7078" stroke="#584CA0" stroke-width="3" stroke-miterlimit="10"/>
<path d="M38.1885 66.4277L35.8305 68.767L34.3301 72.8079" stroke="#584CA0" stroke-width="3" stroke-miterlimit="10"/>
<path d="M72.0576 77.2734L73.2968 80.8877L76.9889 82.5894" stroke="#584CA0" stroke-width="3" stroke-miterlimit="10"/>
<path d="M75.982 31.7939L104 4V103.2H4L24.7517 82.6169" stroke="#00B0AD" stroke-width="3" stroke-miterlimit="10"/>
</svg>
