<svg width="106" height="105" viewBox="0 0 106 105" fill="none" xmlns="http://www.w3.org/2000/svg">
<path d="M33.3793 80.427C34.4931 79.1803 35.3124 70.3877 35.5684 68.7424L36.2111 62.8087L42.3329 77.6138C43.3545 80.0817 45.7792 81.6965 48.4701 81.6965L51.1585 81.5035L53.9416 80.0309L51.2199 81.6254L60.3707 75.6866L61.9734 74.6786H61.9581L68.9274 70.2481L88.0968 78.4872L92.6082 71.3982L67.1018 60.5541L53.9032 67.9274L46.7367 49.9816C45.8739 47.8183 43.7642 46.3965 41.4189 46.3965H37.7627C34.214 46.3965 31.2056 48.9787 30.6935 52.4597L26.6123 81.4959C28.2433 81.8945 31.4616 82.5699 33.3793 80.4245V80.427Z" stroke="#584CA0" stroke-width="3" stroke-miterlimit="10"/>
<path d="M76.3272 100.146L76.5346 75.0705L62.8418 74.1895L51.5225 81.545L68.3773 81.6974V100.146H76.3272Z" stroke="#584CA0" stroke-width="3" stroke-miterlimit="10"/>
<path d="M35.5406 41.3884C40.5039 41.3884 44.5275 37.3984 44.5275 32.4764C44.5275 27.5545 40.5039 23.5645 35.5406 23.5645C30.5773 23.5645 26.5537 27.5545 26.5537 32.4764C26.5537 37.3984 30.5773 41.3884 35.5406 41.3884Z" stroke="#584CA0" stroke-width="3"/>
<path d="M19.1816 86.7188H58.0504" stroke="#584CA0" stroke-width="3" stroke-miterlimit="10"/>
<path d="M27.7559 85.7031V102.143" stroke="#584CA0" stroke-width="3" stroke-miterlimit="10"/>
<path d="M49.4756 85.7031V102.143" stroke="#584CA0" stroke-width="3" stroke-miterlimit="10"/>
<path d="M58.889 48.735L104 4V103.167H4L13.4452 93.8001" stroke="#00B0AD" stroke-width="3" stroke-miterlimit="10"/>
</svg>
