<svg width="106" height="105" viewBox="0 0 106 105" fill="none" xmlns="http://www.w3.org/2000/svg">
<path d="M76.727 31.0025L104 4V102.999H4L34.3838 72.9194" stroke="#00B0AD" stroke-width="3" stroke-miterlimit="10"/>
<path d="M67.8589 64.9279L67.0181 64.6461L59.811 60.8214L50.0415 47.4552L52.8843 42.9058L58.2695 42.3422L62.794 47.1532L66.3174 42.6039L62.0332 39.061L66.0571 31.2104L61.5327 28.9357L55.0264 35.7396L50.6221 31.2506L53.1646 24.9903L60.772 22.8766L59.771 16.5558L53.4849 17.8039L50.9624 12.248L44.1758 15.5292L46.9385 22.3734L41.8535 27.5467L38.8706 27.4058L36.3281 22.4338L38.3101 14.8851L30.9629 13.3351L28.981 19.8773L22.4746 19.5954L19.772 26.4195L29.8418 26.9227L31.5234 32.6597L24.3164 36.7864L17.5098 31.4721L14.2466 36.0214L18.2305 40.913L14.1465 44.8987L19.0313 49.4279L25.0171 44.174L31.5234 42.9058L30.3223 51.2597L21.5337 53.474L21.7939 59.5331L30.1021 58.7883L31.103 65.1091L37.1289 64.1026L37.0488 54.8428L42.1338 52.2863L53.1646 68.35L63.6148 73.8857L67.1582 80.5688L65.3164 87.6746L72.5235 92.3649L79.5903 87.3928L76.127 82.8032L72.3433 74.9727L78.3892 77.7506L81.9927 79.4415L85.396 83.2662L91.6221 79.8643L89.46 73.2013L85.2559 72.8993L75.0259 68.813L82.9136 64.1026L86.6773 66.3773L90.9014 61.8078L91.0415 55.9701L85.9566 53.2727L79.8706 54.4201L79.4502 58.2448L67.8589 64.9279Z" stroke="#584CA0" stroke-width="3" stroke-miterlimit="10" stroke-linejoin="round"/>
<path d="M45.5527 35.3633C47.8656 37.147 48.2772 40.4595 46.4935 42.7724C44.7098 45.0853 41.3973 45.4969 39.0844 43.7132C36.7716 41.9296 36.36 38.6171 38.1436 36.3042C39.9273 33.9913 43.2398 33.5797 45.5527 35.3633Z" stroke="#584CA0" stroke-width="3" stroke-linejoin="round"/>
</svg>
