<svg width="106" height="108" viewBox="0 0 106 108" fill="none" xmlns="http://www.w3.org/2000/svg">
<path d="M70.0773 76.9098L63.9386 83.1612V100.353H53.1958V83.1612L62.4039 67.5326M54.7305 51.9066C55.4006 51.3622 56.966 50.3438 59.3345 50.3438C61.7031 50.3438 62.9692 51.1043 63.9386 51.9066C64.7673 52.5943 74.8067 60.9608 78.9989 64.4538C80.1551 65.4175 80.8201 66.8528 80.8201 68.3739V81.5983L91.5629 92.5384L83.8895 100.353L70.0773 86.2869V73.784L56.2652 62.844L46.5583 73.672C39.9719 78.1653 35.1377 72.7994 35.1377 72.7994L54.7305 51.904V51.9066Z" stroke="#584CA0" stroke-width="3" stroke-miterlimit="10"/>
<path d="M42.4415 50.3422C47.527 50.3422 51.6496 46.1439 51.6496 40.965C51.6496 35.7862 47.527 31.5879 42.4415 31.5879C37.356 31.5879 33.2334 35.7862 33.2334 40.965C33.2334 46.1439 37.356 50.3422 42.4415 50.3422Z" stroke="#584CA0" stroke-width="3" stroke-miterlimit="10"/>
<path d="M29.1221 56.0121L34.6904 54.2695L33.4064 59.9375" stroke="#584CA0" stroke-width="3" stroke-miterlimit="10"/>
<path d="M67.1462 41.5305L104 4V105.836H4L29.8494 79.5146" stroke="#00B0AD" stroke-width="3" stroke-miterlimit="10"/>
</svg>
